<?xml version="1.0" encoding="utf-8"?>
<!-- Generator: Adobe Illustrator 17.1.0, SVG Export Plug-In . SVG Version: 6.00 Build 0)  -->
<!DOCTYPE svg PUBLIC "-//W3C//DTD SVG 1.1//EN" "http://www.w3.org/Graphics/SVG/1.1/DTD/svg11.dtd">
<svg version="1.1" id="Layer_1" xmlns="http://www.w3.org/2000/svg" xmlns:xlink="http://www.w3.org/1999/xlink" x="0px" y="0px"
	 viewBox="-5.1 0 100 100" enable-background="new -5.1 0 100 100" xml:space="preserve">
<path d="M35.7,60.4l-3.8,7c-0.2,0.4-0.7,1.1-2,1.1c-1.6,0-4.3-1-6-1.7l-0.3,0.7l-2.6-1.2l0.3-0.7c-2.3-1.1-5.1-2.8-5.6-4.2l-0.2-0.8
	l0.2-0.6l2.9-7.5c-3,1.9-5.6,6.1-8.9,12.7L6,73c-0.3,0.7-0.6,1.4-1,2.1l22.2,10.3c0.3-0.7,0.6-1.4,1-2.1l3.6-7.9
	C34.7,68.5,36.2,63.9,35.7,60.4z M28.5,77.5l-2.8,6L7.3,74.9l2.8-6c0.8-1.7,2.8-2.5,5.4-2.5c1.9,0,4.1,0.5,6.3,1.5
	C26.9,70.3,29.9,74.5,28.5,77.5z"/>
<path d="M27.1,74.8c0.3,0.8,0.3,1.5,0,2L25,81.4L9.4,74.2l2.1-4.5c0.5-1,1.9-1.6,4-1.6c1.8,0,3.8,0.5,5.7,1.4
	C24.1,70.7,26.3,72.8,27.1,74.8z"/>
<path d="M31.3,53c0.5,0.2,1.1,0.4,1.7,0.4c0.1,0.6,0.1,1.1,0.1,1.7c1.6,1,2.6,1.8,2.4,2.2l-5.1,9.4c-0.3,0.6-3.5-0.3-7.2-2
	c-3.7-1.7-6.4-3.6-6.1-4.2l3.8-9.9c0.2-0.4,1.4-0.2,3.2,0.4c1.1-1.2,2.6-1.8,4.1-1.8c0.1,0.5,0.3,1,0.6,1.6c-1-0.2-2,0.1-2.9,0.8
	c0.9,0.3,1.8,0.7,2.8,1.2c1,0.5,1.9,0.9,2.7,1.4C31.5,53.8,31.4,53.4,31.3,53C31.3,53,31.3,53,31.3,53z"/>
<path d="M69.2,54.6c-0.2,1.2,0.1,3.5,0.6,4.6l13,28.3c0.7,1.4,1.4,3.1,0.3,4.9c-0.7,1-1.8,1.7-3.1,1.7l0,0c-2.2,0-3.2-1.7-4-3
	L59.9,64l-4.4,8.9c-1,2.1-3,5-4.6,6.7L42.2,89c-1.1,1.2-2,2.2-3.7,2.2c-1.4,0-2.7-0.8-3.3-2.1c-1-2.1,0.2-3.7,1.3-5l8.7-10.7
	c0.9-1.2,2.2-3.5,2.6-4.9l3.2-11.2c0.5-1.7,1-4.6,1.1-6.3l1.4-17.3c-7,2.3-13.9,11.5-16.2,15.3c-1,1.6-1.8,3-3.9,3h0
	c-1.3,0-2.5-0.7-3.1-1.8c-1.1-1.8-0.3-3.3,0.6-4.9c0.5-1,13.5-23.8,31-22.5c7.6,0.6,10,6.3,11.6,10.1c0.4,0.9,0.7,1.7,1.1,2.5l10,18
	c1,1.7,0.4,4-1.3,5c-1.7,1-3.8,0.5-4.9-1.1l-7.4-11.9L69.2,54.6z"/>
<path d="M73.5,12c0.8,4.6-2.4,8.9-6.9,9.6c-4.6,0.8-8.9-2.4-9.6-6.9c-0.8-4.6,2.3-8.9,6.9-9.6C68.5,4.4,72.8,7.5,73.5,12z"/>
</svg>
