<svg xmlns="http://www.w3.org/2000/svg" xmlns:xlink="http://www.w3.org/1999/xlink" version="1.1" id="Layer_1" x="0px" y="0px" width="100px" height="72.917px" viewBox="0 0 100 72.917" enable-background="new 0 0 100 72.917" xml:space="preserve">
<path fill="none" d="M31.25,16.667H12.5c-1.15,0-2.083,0.933-2.083,2.083V25c0,1.151,0.933,2.083,2.083,2.083h18.75  c1.15,0,2.083-0.933,2.083-2.083v-6.25C33.333,17.6,32.4,16.667,31.25,16.667z"/>
<path fill="none" d="M68.247,36.081c-3.022,0-5.473,2.449-5.473,5.47c0,3.019,2.45,5.469,5.473,5.469c3.02,0,5.469-2.45,5.469-5.469  C73.716,38.53,71.267,36.081,68.247,36.081z"/>
<path fill="none" d="M68.104,18.849c-12.402,0-22.46,10.056-22.46,22.458c0,12.404,10.058,22.461,22.46,22.461  s22.461-10.057,22.461-22.461C90.564,28.904,80.506,18.849,68.104,18.849z M68.247,56.423c-8.215,0-14.872-6.661-14.872-14.872  c0-8.214,6.657-14.872,14.872-14.872c8.212,0,14.868,6.658,14.868,14.872C83.115,49.762,76.459,56.423,68.247,56.423z"/>
<path d="M68.247,26.68c-8.215,0-14.872,6.658-14.872,14.872c0,8.211,6.657,14.872,14.872,14.872c8.212,0,14.868-6.661,14.868-14.872  C83.115,33.337,76.459,26.68,68.247,26.68z M68.247,47.02c-3.022,0-5.473-2.45-5.473-5.469c0-3.021,2.45-5.47,5.473-5.47  c3.02,0,5.469,2.449,5.469,5.47C73.716,44.57,71.267,47.02,68.247,47.02z"/>
<path d="M91.667,8.333h-6.348L83.447,6.47L76.97,0H56.238l-7.486,7.479l-0.859,0.854h-14.56V0H10.417v8.333H8.333  C3.731,8.333,0,12.065,0,16.667v47.917c0,4.603,3.731,8.333,8.333,8.333h83.333c4.602,0,8.333-3.73,8.333-8.333V16.667  C100,12.065,96.269,8.333,91.667,8.333z M33.333,25c0,1.151-0.933,2.083-2.083,2.083H12.5c-1.15,0-2.083-0.933-2.083-2.083v-6.25  c0-1.15,0.933-2.083,2.083-2.083h18.75c1.15,0,2.083,0.933,2.083,2.083V25z M68.104,63.768c-12.402,0-22.46-10.057-22.46-22.461  c0-12.403,10.058-22.458,22.46-22.458s22.461,10.056,22.461,22.458C90.564,53.711,80.506,63.768,68.104,63.768z"/>
</svg>