<?xml version="1.0" encoding="utf-8"?>
<!-- Generator: Adobe Illustrator 17.1.0, SVG Export Plug-In . SVG Version: 6.00 Build 0)  -->
<!DOCTYPE svg PUBLIC "-//W3C//DTD SVG 1.1//EN" "http://www.w3.org/Graphics/SVG/1.1/DTD/svg11.dtd">
<svg version="1.1" id="Layer_1" xmlns="http://www.w3.org/2000/svg" xmlns:xlink="http://www.w3.org/1999/xlink" x="0px" y="0px"
	 viewBox="0 -13.5 100 100" enable-background="new 0 -13.5 100 100" xml:space="preserve">
<path fill="none" d="M33.1,17.5H16.3c-1,0-1.9,0.8-1.9,1.9V25c0,1,0.8,1.9,1.9,1.9h16.9c1,0,1.9-0.8,1.9-1.9v-5.6
	C35,18.3,34.2,17.5,33.1,17.5z"/>
<path fill="none" d="M66.4,34.9c-2.7,0-4.9,2.2-4.9,4.9c0,2.7,2.2,4.9,4.9,4.9c2.7,0,4.9-2.2,4.9-4.9C71.3,37.1,69.1,34.9,66.4,34.9
	z"/>
<path fill="none" d="M66.3,19.4c-11.2,0-20.2,9.1-20.2,20.2c0,11.2,9.1,20.2,20.2,20.2s20.2-9.1,20.2-20.2
	C86.5,28.5,77.5,19.4,66.3,19.4z M66.4,53.2c-7.4,0-13.4-6-13.4-13.4c0-7.4,6-13.4,13.4-13.4c7.4,0,13.4,6,13.4,13.4
	C79.8,47.2,73.8,53.2,66.4,53.2z"/>
<path d="M66.4,26.5c-7.4,0-13.4,6-13.4,13.4c0,7.4,6,13.4,13.4,13.4c7.4,0,13.4-6,13.4-13.4C79.8,32.5,73.8,26.5,66.4,26.5z
	 M66.4,44.8c-2.7,0-4.9-2.2-4.9-4.9c0-2.7,2.2-4.9,4.9-4.9c2.7,0,4.9,2.2,4.9,4.9C71.3,42.6,69.1,44.8,66.4,44.8z"/>
<path d="M87.5,10h-5.7l-1.7-1.7l-5.8-5.8H55.6l-6.7,6.7L48.1,10H35V2.5H14.4V10h-1.9C8.4,10,5,13.3,5,17.5v43.1
	c0,4.1,3.4,7.5,7.5,7.5h75c4.1,0,7.5-3.4,7.5-7.5V17.5C95,13.3,91.6,10,87.5,10z M35,25c0,1-0.8,1.9-1.9,1.9H16.3
	c-1,0-1.9-0.8-1.9-1.9v-5.6c0-1,0.8-1.9,1.9-1.9h16.9c1,0,1.9,0.8,1.9,1.9V25z M66.3,59.9c-11.2,0-20.2-9.1-20.2-20.2
	c0-11.2,9.1-20.2,20.2-20.2s20.2,9.1,20.2,20.2C86.5,50.8,77.5,59.9,66.3,59.9z"/>
</svg>
