<?xml version="1.0" encoding="utf-8"?>
<!-- Generator: Adobe Illustrator 17.1.0, SVG Export Plug-In . SVG Version: 6.00 Build 0)  -->
<!DOCTYPE svg PUBLIC "-//W3C//DTD SVG 1.1//EN" "http://www.w3.org/Graphics/SVG/1.1/DTD/svg11.dtd">
<svg version="1.1" id="Layer_1" xmlns="http://www.w3.org/2000/svg" xmlns:xlink="http://www.w3.org/1999/xlink" x="0px" y="0px"
	 viewBox="0 0 100 100" enable-background="new 0 0 100 100" xml:space="preserve">
<g id="Captions">
</g>
<g id="Your_Icon">
	<path d="M87.1,10.1c-2,0-3.6,1.6-3.6,3.6v12.5H15.6V4.9c0-2-1.6-3.6-3.6-3.6S8.3,2.9,8.3,4.9v36.7c0,2,1.6,3.6,3.6,3.6
		s3.6-1.6,3.6-3.6V36h67.9v5.6c0,2,1.6,3.6,3.6,3.6c2,0,3.6-1.6,3.6-3.6v-28C90.7,11.7,89.1,10.1,87.1,10.1z"/>
	<path d="M81.1,18.1c0-4.6-3.8-8.4-8.4-8.4H39.2v13.8h41.9C81.1,23.6,81.1,18.1,81.1,18.1z"/>
	<path d="M32.2,6.1h-9.8c-2.2,0-4,1.8-4,4v13.4h17.9V10.1C36.2,7.9,34.4,6.1,32.2,6.1z"/>
</g>
<g id="Your_Icon_1_">
	<path d="M49.5,42.8c-14.4,0-26,11.7-26,26c0,14.4,11.7,26,26,26c14.4,0,26-11.7,26-26S63.9,42.8,49.5,42.8z M49.5,51.1
		c1.1-0.3,2.1-0.4,3.1-0.2c0.4-0.5,1-0.8,1.6-1c1.5-0.5,3.1,0,4.1,1.2c2.8-0.4,5.5,1.3,6.4,4c0.8,2.5-0.1,5.1-2.1,6.6
		c-0.1,2.5-1.7,4.9-4.3,5.7c-3.3,1.1-6.8-0.7-7.9-4c-0.1-0.3-0.2-0.6-0.2-1c-2-0.4-3.8-1.9-4.5-4C44.7,55.4,46.4,52.1,49.5,51.1z
		 M36.7,59.7c0.2-1.8,1.8-3.1,3.6-2.9c1.8,0.2,3.1,1.8,2.9,3.6c-0.6,4.7,2.9,9,7.6,9.6c1.8,0.2,3.1,1.8,2.9,3.6
		c-0.2,1.7-1.6,2.9-3.3,2.9c-0.1,0-0.3,0-0.4,0C41.7,75.6,35.8,68.1,36.7,59.7z M45.1,79.7c-0.2,1.7-1.6,2.9-3.3,2.9
		c-0.1,0-0.3,0-0.4,0c-4-0.5-7.6-2.5-10.2-5.7c-2.5-3.2-3.6-7.2-3.2-11.2c0.2-1.8,1.8-3.1,3.6-2.9c1.8,0.2,3.1,1.8,2.9,3.6
		c-0.3,2.3,0.4,4.6,1.8,6.4c1.4,1.8,3.5,3,5.8,3.2C44,76.3,45.3,77.9,45.1,79.7z M50.4,83.8c0.7-0.2,0.9-0.2,1.4-0.7
		c0.5-0.5,0.5-0.7,0.7-1.4c0.2-0.9,0.5-2.4,2.1-3.9c1.5-1.5,2.9-1.9,3.9-2.1c0.7-0.2,0.9-0.2,1.4-0.7c0.5-0.5,0.5-0.7,0.7-1.4
		c0.2-0.9,0.5-2.4,2.1-3.9s2.9-1.9,3.9-2.1c0.7-0.2,0.9-0.2,1.4-0.7l1,1c-0.7,0.7-1.3,0.8-2,1c-0.9,0.2-2,0.5-3.2,1.7
		c-1.3,1.3-1.5,2.4-1.7,3.2c-0.2,0.8-0.3,1.3-1.1,2.1c-0.8,0.8-1.3,0.9-2.1,1.1c-0.9,0.2-2,0.5-3.2,1.7C54.3,80,54,81.1,53.8,82
		c-0.2,0.8-0.3,1.3-1.1,2.1c-0.8,0.8-1.3,0.9-2.1,1.1c-0.9,0.2-1.9,0.5-3.1,1.6l-1-1C48,84.3,49.4,84,50.4,83.8z M67.7,72.7
		c-0.7,0.2-0.9,0.2-1.4,0.7c-0.5,0.5-0.5,0.7-0.7,1.4c-0.2,0.9-0.5,2.4-2.1,3.9c-1.5,1.5-2.9,1.9-3.9,2.1c-0.7,0.2-0.9,0.2-1.4,0.7
		c-0.5,0.5-0.5,0.7-0.7,1.4c-0.2,0.9-0.5,2.4-2.1,3.9c-1.5,1.5-2.9,1.9-3.9,2.1c-0.7,0.2-0.9,0.2-1.4,0.7l-1-1c0.7-0.7,1.3-0.8,2-1
		c0.9-0.2,2-0.5,3.2-1.7c1.3-1.3,1.5-2.4,1.7-3.2c0.2-0.8,0.3-1.3,1.1-2.1c0.8-0.8,1.3-0.9,2.1-1.1c0.9-0.2,2-0.5,3.2-1.7
		c1.3-1.3,1.5-2.4,1.7-3.2c0.2-0.8,0.3-1.3,1.1-2.1c0.8-0.8,1.3-0.9,2.1-1.1c0.9-0.2,1.9-0.5,3.1-1.6l1,1
		C70,72.1,68.6,72.5,67.7,72.7z"/>
	<g>
		<path d="M60.5,56.8c-0.6-1.8-2.5-2.8-4.4-2.2c-1.8,0.6-2.8,2.5-2.2,4.4c0.6,1.8,2.5,2.8,4.4,2.2C60.1,60.6,61.1,58.7,60.5,56.8z
			 M59.7,58.2c-0.1,0-0.3-0.1-0.3-0.3c0-1.1-0.9-2-2-2c-0.1,0-0.3-0.1-0.3-0.3s0.1-0.3,0.3-0.3c1.4,0,2.6,1.1,2.6,2.6
			C60,58.1,59.9,58.2,59.7,58.2z"/>
	</g>
</g>
</svg>
