<?xml version="1.0" encoding="utf-8"?>
<!-- Generator: Adobe Illustrator 17.1.0, SVG Export Plug-In . SVG Version: 6.00 Build 0)  -->
<!DOCTYPE svg PUBLIC "-//W3C//DTD SVG 1.1//EN" "http://www.w3.org/Graphics/SVG/1.1/DTD/svg11.dtd">
<svg version="1.1" id="Layer_1" xmlns="http://www.w3.org/2000/svg" xmlns:xlink="http://www.w3.org/1999/xlink" x="0px" y="0px"
	 viewBox="0 0 100 100" enable-background="new 0 0 100 100" xml:space="preserve">
<g id="Captions">
</g>
<g id="Your_Icon">
	<path d="M87.1,60.1c-2,0-3.6,1.6-3.6,3.6v12.5H15.6V54.9c0-2-1.6-3.6-3.6-3.6s-3.7,1.6-3.7,3.6v36.7c0,2,1.6,3.6,3.6,3.6
		s3.6-1.6,3.6-3.6V86h67.9v5.6c0,2,1.6,3.6,3.6,3.6s3.6-1.6,3.6-3.6v-28C90.7,61.7,89.1,60.1,87.1,60.1z"/>
	<path d="M81.1,68.1c0-4.6-3.8-8.4-8.4-8.4H39.2v13.8h41.9C81.1,73.6,81.1,68.1,81.1,68.1z"/>
	<path d="M32.2,56.1h-9.8c-2.2,0-4,1.8-4,4v13.4h17.9V60.1C36.2,57.9,34.4,56.1,32.2,56.1z"/>
</g>
<g>
	<g>
		<path d="M67.6,27.7L67.6,27.7l0-1.7c0-0.7-0.5-1.2-1.2-1.2H36.7c-0.7,0-1.2,0.5-1.2,1.2v8.1c0,8.1,6.6,14.7,14.7,14.7h2.7
			c4.8,0,9-2.3,11.7-5.8c0.9,0.4,2,0.6,3,0.6c4.4,0,7.9-3.6,7.9-7.9S71.9,27.7,67.6,27.7z M67.6,39.2c-0.3,0-0.6,0-0.9-0.1
			c0.5-1.5,0.9-3.2,0.9-4.9v-2h0c1.9,0,3.5,1.6,3.5,3.5S69.5,39.2,67.6,39.2z"/>
		<path d="M67.6,27.7L67.6,27.7l0-1.7c0-0.7-0.5-1.2-1.2-1.2H36.7c-0.7,0-1.2,0.5-1.2,1.2v8.1c0,8.1,6.6,14.7,14.7,14.7h2.7
			c4.8,0,9-2.3,11.7-5.8c0.9,0.4,2,0.6,3,0.6c4.4,0,7.9-3.6,7.9-7.9S71.9,27.7,67.6,27.7z M67.6,39.2c-0.3,0-0.6,0-0.9-0.1
			c0.5-1.5,0.9-3.2,0.9-4.9v-2h0c1.9,0,3.5,1.6,3.5,3.5S69.5,39.2,67.6,39.2z"/>
	</g>
	<path d="M47,11.5c2.3,6.9-3.6,8.7-3.6,8.7l0,0c0.1-0.1,1.4-2.5-0.2-7.5C40.9,5.9,46.8,4,46.8,4l0,0C46.8,4.1,45.4,6.5,47,11.5z"/>
	<path d="M54.1,11.5c2.3,6.9-3.6,8.7-3.6,8.7l0,0c0.1-0.1,1.4-2.5-0.2-7.5C48,5.9,53.9,4,53.9,4l0,0C53.9,4.1,52.5,6.5,54.1,11.5z"
		/>
	<path d="M61.2,11.5c2.3,6.9-3.6,8.7-3.6,8.7l0,0c0.1-0.1,1.4-2.5-0.2-7.5C55.1,5.9,61,4,61,4l0,0C61,4.1,59.6,6.5,61.2,11.5z"/>
</g>
</svg>
