<?xml version="1.0" encoding="utf-8"?>
<!-- Generator: Adobe Illustrator 17.1.0, SVG Export Plug-In . SVG Version: 6.00 Build 0)  -->
<!DOCTYPE svg PUBLIC "-//W3C//DTD SVG 1.1//EN" "http://www.w3.org/Graphics/SVG/1.1/DTD/svg11.dtd">
<svg version="1.1" id="Layer_1" xmlns="http://www.w3.org/2000/svg" xmlns:xlink="http://www.w3.org/1999/xlink" x="0px" y="0px"
	 viewBox="0 -28 100 100" enable-background="new 0 -28 100 100" xml:space="preserve">
<g>
	<path d="M94.9,0H5.1C2.3,0,0,2.3,0,5.1v29.5c0,2.8,2.3,5.1,5.1,5.1h7.1C12.1,39,12,38.2,12,37.4c0-4.9,3.9-8.8,8.8-8.8
		c4.9,0,8.8,3.9,8.8,8.8c0,0.8-0.1,1.6-0.3,2.4h43.3c-0.2-0.8-0.3-1.5-0.3-2.4c0-4.9,3.9-8.8,8.8-8.8s8.8,3.9,8.8,8.8
		c0,0.8-0.1,1.6-0.3,2.4h5.4c2.8,0,5.1-2.3,5.1-5.1V5.1C100,2.3,97.7,0,94.9,0z M15.2,16.7c0,0.5-0.4,0.8-0.8,0.8h-8
		c-0.5,0-0.8-0.4-0.8-0.8v-5.9c0-0.5,0.4-0.8,0.8-0.8h8c0.5,0,0.8,0.4,0.8,0.8L15.2,16.7L15.2,16.7z M27.4,16.7
		c0,0.5-0.4,0.8-0.8,0.8h-8c-0.5,0-0.8-0.4-0.8-0.8v-5.9c0-0.5,0.4-0.8,0.8-0.8h8c0.5,0,0.8,0.4,0.8,0.8V16.7z M42.3,37.2
		c0,0.5-0.4,0.8-0.8,0.8h-8c-0.5,0-0.8-0.4-0.8-0.8V10.8c0-0.5,0.4-0.8,0.8-0.8h8c0.5,0,0.8,0.4,0.8,0.8V37.2z M56.8,16.7
		c0,0.5-0.4,0.8-0.8,0.8h-8c-0.5,0-0.8-0.4-0.8-0.8v-5.9c0-0.5,0.4-0.8,0.8-0.8h8c0.5,0,0.8,0.4,0.8,0.8
		C56.8,10.8,56.8,16.7,56.8,16.7z M69,16.7c0,0.5-0.4,0.8-0.8,0.8h-8c-0.5,0-0.8-0.4-0.8-0.8v-5.9c0-0.5,0.4-0.8,0.8-0.8h8
		c0.5,0,0.8,0.4,0.8,0.8V16.7z M81.2,16.7c0,0.5-0.4,0.8-0.8,0.8h-8c-0.5,0-0.8-0.4-0.8-0.8v-5.9c0-0.5,0.4-0.8,0.8-0.8h8
		c0.5,0,0.8,0.4,0.8,0.8V16.7z M93.4,16.7c0,0.5-0.4,0.8-0.8,0.8h-8c-0.5,0-0.8-0.4-0.8-0.8v-5.9c0-0.5,0.4-0.8,0.8-0.8h8
		c0.5,0,0.8,0.4,0.8,0.8V16.7z"/>
	<path d="M20.8,30.8c-3.7,0-6.6,3-6.6,6.6c0,0.8,0.2,1.6,0.4,2.4c1,2.5,3.4,4.3,6.2,4.3s5.2-1.8,6.2-4.3c0.3-0.7,0.4-1.5,0.4-2.4
		C27.4,33.8,24.4,30.8,20.8,30.8z"/>
	<path d="M81,30.8c-3.7,0-6.6,3-6.6,6.6c0,0.8,0.2,1.6,0.4,2.4c1,2.5,3.4,4.3,6.2,4.3s5.2-1.8,6.2-4.3c0.3-0.7,0.4-1.5,0.4-2.4
		C87.6,33.8,84.6,30.8,81,30.8z"/>
</g>
</svg>
