<?xml version="1.0" encoding="utf-8"?>
<!-- Generator: Adobe Illustrator 17.1.0, SVG Export Plug-In . SVG Version: 6.00 Build 0)  -->
<!DOCTYPE svg PUBLIC "-//W3C//DTD SVG 1.1//EN" "http://www.w3.org/Graphics/SVG/1.1/DTD/svg11.dtd">
<svg version="1.1" id="Layer_1" xmlns="http://www.w3.org/2000/svg" xmlns:xlink="http://www.w3.org/1999/xlink" x="0px" y="0px"
	 viewBox="110 70 100 100" enable-background="new 110 70 100 100" xml:space="preserve">
<g>
	<circle cx="136.1" cy="135.7" r="2.5"/>
	<path d="M141.8,121.7h11.6V114c-2.4,0.4-7.1,1.4-7.1,1.4L141.8,121.7z"/>
	<circle cx="182.4" cy="135.7" r="2.5"/>
	<path d="M160,77c-23.7,0-43,19.3-43,43s19.3,43,43,43s43-19.3,43-43S183.7,77,160,77z M149.9,85.2c3.2,0,6,1.8,7.5,4.4h16.6
		l4.3,4.3l-4.3,4.3l-2.1-2.1l-2.3,2.3l-2.1-2.1l-2.1,2.1l-2.1-2.1l-2.1,2.1h-3.5c-1.4,2.6-4.3,4.4-7.4,4.4c-3.6,0-6.7-2.3-8-5.5h2.4
		c1.8,0,3.2-1.4,3.2-3.2s-1.4-3.2-3.2-3.2h-2.6C143.2,87.5,146.3,85.2,149.9,85.2z M136.1,141.6c-3.2,0-5.8-2.6-5.8-5.8
		c0-3.2,2.6-5.8,5.8-5.8s5.8,2.6,5.8,5.8C141.8,138.9,139.2,141.6,136.1,141.6z M182.4,141.6c-3.2,0-5.8-2.6-5.8-5.8
		c0-3.2,2.6-5.8,5.8-5.8c3.2,0,5.8,2.6,5.8,5.8C188.1,138.9,185.5,141.6,182.4,141.6z M190.5,134.9c-0.5-4.2-3.9-7.4-8.2-7.4
		s-7.7,3.2-8.2,7.4h-29.9c-0.5-4.2-3.9-7.4-8.2-7.4s-7.7,3.2-8.1,7.4h-2.6v-8.2l1.7-5c3.3,0,11-6.6,14.9-8.2c1.7-0.7,4.4-1.4,7.4-2
		c1.4-0.2,2.9-0.5,4.3-0.7c1.2-0.1,2.3-0.4,3.3-0.4c1.4-0.1,2.5-0.2,3.3-0.2l16.4,9.9c0,0,4.5,0,9.1,1.7c4.2,1.5,8.3,4.4,9.2,9.9
		c0,0,0,2.4,0,3.3H190.5z"/>
	<path d="M156.7,113.6v8.1h16.2l-13.7-8.2C158.5,113.4,157.6,113.6,156.7,113.6z"/>
</g>
</svg>
