<?xml version="1.0" encoding="utf-8"?>
<!-- Generator: Adobe Illustrator 17.1.0, SVG Export Plug-In . SVG Version: 6.00 Build 0)  -->
<!DOCTYPE svg PUBLIC "-//W3C//DTD SVG 1.1//EN" "http://www.w3.org/Graphics/SVG/1.1/DTD/svg11.dtd">
<svg version="1.1" id="Layer_1" xmlns="http://www.w3.org/2000/svg" xmlns:xlink="http://www.w3.org/1999/xlink" x="0px" y="0px"
	 viewBox="0 0 100 100" enable-background="new 0 0 100 100" xml:space="preserve">
<g>
	<circle cx="29.9" cy="63.2" r="2.1"/>
	<path d="M34.7,51.4h9.7V45c-2,0.3-6,1.2-6,1.2L34.7,51.4z"/>
	<circle cx="68.8" cy="63.2" r="2.1"/>
	<path d="M50,13.9c-19.9,0-36.1,16.2-36.1,36.1S30.1,86.1,50,86.1S86.1,69.9,86.1,50S69.9,13.9,50,13.9z M41.5,20.8
		c2.7,0,5,1.5,6.3,3.7l13.9,0l3.6,3.6l-3.6,3.6l-1.8-1.8L58,31.8l-1.8-1.8l-1.8,1.8l-1.8-1.8l-1.8,1.8l-2.9,0
		c-1.2,2.2-3.6,3.7-6.2,3.7c-3,0-5.6-1.9-6.7-4.6H37c1.5,0,2.7-1.2,2.7-2.7c0-1.5-1.2-2.7-2.7-2.7h-2.2
		C35.9,22.7,38.5,20.8,41.5,20.8z M29.9,68.1c-2.7,0-4.9-2.2-4.9-4.9s2.2-4.9,4.9-4.9s4.9,2.2,4.9,4.9
		C34.7,65.9,32.5,68.1,29.9,68.1z M68.8,68.1c-2.7,0-4.9-2.2-4.9-4.9s2.2-4.9,4.9-4.9s4.9,2.2,4.9,4.9
		C73.6,65.9,71.4,68.1,68.8,68.1z M75.6,62.5c-0.4-3.5-3.3-6.2-6.9-6.2s-6.5,2.7-6.9,6.2H36.7c-0.4-3.5-3.3-6.2-6.9-6.2
		S23.3,59,23,62.5h-2.2v-6.9l1.4-4.2c2.8,0,9.2-5.5,12.5-6.9c1.4-0.6,3.7-1.2,6.2-1.7c1.2-0.2,2.4-0.4,3.6-0.6
		c1-0.1,1.9-0.3,2.8-0.3c1.2-0.1,2.1-0.2,2.8-0.2L63.9,50c0,0,3.8,0,7.6,1.4c3.5,1.3,7,3.7,7.7,8.3c0,0,0,2,0,2.8H75.6z"/>
	<path d="M47.2,44.6v6.8h13.6l-11.5-6.9C48.7,44.5,48,44.6,47.2,44.6z"/>
</g>
</svg>
