<?xml version="1.0" encoding="utf-8"?>
<!-- Generator: Adobe Illustrator 17.1.0, SVG Export Plug-In . SVG Version: 6.00 Build 0)  -->
<!DOCTYPE svg PUBLIC "-//W3C//DTD SVG 1.1//EN" "http://www.w3.org/Graphics/SVG/1.1/DTD/svg11.dtd">
<svg version="1.1" id="Layer_1" xmlns="http://www.w3.org/2000/svg" xmlns:xlink="http://www.w3.org/1999/xlink" x="0px" y="0px"
	 viewBox="0 0 100 100" enable-background="new 0 0 100 100" xml:space="preserve">
<g>
	<g>
		<path d="M36,32.9c-0.5,0-1-0.2-1.4-0.6c-0.7-0.8-0.7-2,0-2.7c2.4-2.4,2.7-5.5,0.8-8.4c-3.3-5.1-3.1-9.9,0.5-13.7
			c0.7-0.8,2-0.8,2.7,0c0.8,0.7,0.8,2,0,2.7c-0.9,0.9-3.5,3.6-0.1,8.9c2.9,4.4,2.3,9.6-1.4,13.2C37,32.7,36.5,32.9,36,32.9L36,32.9z
			"/>
	</g>
</g>
<g>
	<g>
		<path d="M45.1,32.9c-0.5,0-1-0.2-1.4-0.6c-0.7-0.8-0.7-2,0-2.7c2.4-2.4,2.7-5.5,0.8-8.4c-3.3-5.1-3.1-9.9,0.5-13.7
			c0.7-0.8,2-0.8,2.7,0c0.8,0.7,0.8,2,0,2.7c-0.9,0.9-3.5,3.6-0.1,8.9c2.9,4.4,2.3,9.6-1.4,13.2C46.1,32.7,45.6,32.9,45.1,32.9
			L45.1,32.9z"/>
	</g>
</g>
<g>
	<g>
		<path d="M54.3,32.9c-0.5,0-1-0.2-1.4-0.6c-0.7-0.8-0.7-2,0-2.7c2.4-2.4,2.7-5.5,0.8-8.4c-3.3-5.1-3.1-9.9,0.5-13.7
			c0.7-0.8,2-0.8,2.7,0s0.8,2,0,2.7c-0.9,0.9-3.5,3.6-0.1,8.9c2.9,4.4,2.3,9.6-1.4,13.2C55.2,32.7,54.7,32.9,54.3,32.9L54.3,32.9z"
			/>
	</g>
</g>
<path d="M7,85.8V87c0,3.2,2.6,5.8,5.8,5.8h66.4c3.2,0,5.8-2.6,5.8-5.8v-1.2H7z"/>
<path d="M86.3,39.9H75.2c-0.1,0-0.2,0-0.2,0c-0.1,0-0.2,0-0.2,0H15c-2.1,0-3.9,1.7-3.9,3.9v12.1c0,13.8,9.2,23.7,22.4,28h22.5
	c12.1-4,20.8-12.6,22.2-24.5h8c3.7,0,6.7-3,6.7-6.7v-6.1C93,42.9,90,39.9,86.3,39.9z M88,52.7c0,0.9-0.8,1.7-1.7,1.7h-7.8v-9.5h7.8
	c0.9,0,1.7,0.8,1.7,1.7V52.7z"/>
</svg>
