<svg xmlns="http://www.w3.org/2000/svg" xmlns:xlink="http://www.w3.org/1999/xlink" version="1.1" id="Layer_1" x="0px" y="0px" width="100px" height="100px" viewBox="0 0 100 100" enable-background="new 0 0 100 100" xml:space="preserve">
<g>
	<g>
		<path d="M33.708,30.24c-0.58,0-1.158-0.224-1.596-0.667c-0.867-0.882-0.858-2.3,0.022-3.169c2.792-2.748,3.158-6.385,0.982-9.725    c-3.823-5.876-3.598-11.521,0.634-15.901c0.86-0.883,2.277-0.912,3.167-0.052c0.889,0.86,0.913,2.278,0.053,3.168    c-1.009,1.044-4.079,4.222-0.098,10.341c3.324,5.103,2.696,11.133-1.592,15.359C34.844,30.025,34.277,30.24,33.708,30.24    L33.708,30.24z"/>
	</g>
</g>
<g>
	<g>
		<path d="M44.328,30.24c-0.58,0-1.158-0.224-1.596-0.667c-0.869-0.882-0.858-2.3,0.021-3.169c2.791-2.748,3.159-6.385,0.984-9.725    c-3.823-5.876-3.599-11.521,0.631-15.901c0.862-0.883,2.281-0.912,3.169-0.052c0.889,0.86,0.911,2.278,0.053,3.168    c-1.011,1.044-4.079,4.222-0.1,10.341c3.323,5.103,2.698,11.133-1.591,15.359C45.462,30.025,44.897,30.24,44.328,30.24    L44.328,30.24z"/>
	</g>
</g>
<g>
	<g>
		<path d="M54.947,30.24c-0.582,0-1.158-0.224-1.597-0.667c-0.868-0.882-0.859-2.3,0.022-3.169c2.789-2.748,3.157-6.385,0.982-9.725    c-3.821-5.876-3.6-11.521,0.632-15.901c0.862-0.883,2.28-0.912,3.169-0.052c0.889,0.86,0.913,2.278,0.054,3.168    c-1.011,1.044-4.08,4.222-0.099,10.341c3.323,5.103,2.697,11.133-1.592,15.359C56.082,30.025,55.515,30.24,54.947,30.24    L54.947,30.24z"/>
	</g>
</g>
<path d="M0,91.739v1.44c0,3.695,3.025,6.722,6.723,6.722h77.19c3.697,0,6.721-3.026,6.721-6.722v-1.44H0z"/>
<path d="M92.231,38.336H79.287c-0.097,0-0.187,0.026-0.284,0.029c-0.093-0.007-0.183-0.029-0.278-0.029H9.334  c-2.466,0-4.481,2.018-4.481,4.482V56.91c0,16.026,10.739,27.518,26.092,32.589h26.174C71.134,84.868,81.3,74.892,82.962,60.99h9.27  c4.273,0,7.769-3.494,7.769-7.766v-7.121C100,41.833,96.505,38.336,92.231,38.336z M94.176,53.225c0,1.05-0.892,1.941-1.944,1.941  h-9.026V44.161h9.026c1.053,0,1.944,0.889,1.944,1.943V53.225z"/>
</svg>