<?xml version="1.0" encoding="utf-8"?>
<!-- Generator: Adobe Illustrator 17.1.0, SVG Export Plug-In . SVG Version: 6.00 Build 0)  -->
<!DOCTYPE svg PUBLIC "-//W3C//DTD SVG 1.1//EN" "http://www.w3.org/Graphics/SVG/1.1/DTD/svg11.dtd">
<svg version="1.1" id="Layer_1" xmlns="http://www.w3.org/2000/svg" xmlns:xlink="http://www.w3.org/1999/xlink" x="0px" y="0px"
	 viewBox="0 0 100 100" enable-background="new 0 0 100 100" xml:space="preserve">
<g id="Captions">
</g>
<g id="Your_Icon">
	<g>
		<path d="M67.5,70.9H31.3c-1.2,0-2.2,1-2.2,2.2v4.3c0,1.2,1,2.2,2.2,2.2h36.2c1.2,0,2.2-1,2.2-2.2v-4.3
			C69.7,71.9,68.7,70.9,67.5,70.9z"/>
	</g>
	<g>
		<circle cx="4.7" cy="45.9" r="4.7"/>
	</g>
	<g>
		<circle cx="78.5" cy="29.7" r="4.7"/>
	</g>
	<g>
		<path d="M93.2,52.1c-2.4-15.5-18.7-15-30.6-7.6c-2.9-7.4-2.4-15.5,9.4-16.7c0.2-0.8,0.6-1.6,1.1-2.2c-15.8-16-35.9-11.8-32.1,10.9
			c-9-11.8-31.9-5.6-35.8,2.8c1.5,0.1,2.8,0.7,3.8,1.7c8.9-2.7,21,6.5,21,21.8v2.5c0,1.2,1,2.2,2.2,2.2h34c1.2,0,2.2-1,2.2-2.2
			c0,0,0-0.4,0-0.4c0-12.3,10.6-15,21.5-10.5C90.8,53.3,91.9,52.5,93.2,52.1z"/>
	</g>
	<g>
		<circle cx="95.3" cy="58.4" r="4.7"/>
	</g>
</g>
</svg>
