<?xml version="1.0" encoding="utf-8"?>
<!-- Generator: Adobe Illustrator 17.1.0, SVG Export Plug-In . SVG Version: 6.00 Build 0)  -->
<!DOCTYPE svg PUBLIC "-//W3C//DTD SVG 1.1//EN" "http://www.w3.org/Graphics/SVG/1.1/DTD/svg11.dtd">
<svg version="1.1" id="Layer_1" xmlns="http://www.w3.org/2000/svg" xmlns:xlink="http://www.w3.org/1999/xlink" x="0px" y="0px"
	 viewBox="0 -19.4 100 100" enable-background="new 0 -19.4 100 100" xml:space="preserve">
<g id="Your_Icon">
	<path d="M93.9,28.1h-8.5c-3.3,0-6.1,2.7-6.1,6.1v9H20.6v-9c0-3.3-2.7-6.1-6.1-6.1H6.1c-3.3,0-6.1,2.7-6.1,6.1v22.9
		c0,3.3,2.7,6.1,6.1,6.1h8.5h70.9h0.8h7.7c3.3,0,6.1-2.7,6.1-6.1V34.2C100,30.8,97.3,28.1,93.9,28.1z"/>
	<path d="M14.6,23.9c5.7,0,10.3,4.6,10.3,10.3v4.7h50.3v-4.7c0-5.7,4.6-10.3,10.3-10.3h6v-0.2c0-6.8-5.5-12.2-12.2-12.2H20.8
		c-6.8,0-12.2,5.5-12.2,12.2v0.2C8.6,23.9,14.6,23.9,14.6,23.9z"/>
	<rect x="6.1" y="67.4" width="14.7" height="5.2"/>
	<rect x="79.9" y="67.4" width="14.7" height="5.2"/>
</g>
</svg>
