<?xml version="1.0" encoding="utf-8"?>
<!-- Generator: Adobe Illustrator 16.0.0, SVG Export Plug-In . SVG Version: 6.00 Build 0)  -->
<!DOCTYPE svg PUBLIC "-//W3C//DTD SVG 1.1//EN" "http://www.w3.org/Graphics/SVG/1.1/DTD/svg11.dtd">
<svg version="1.1" id="Layer_1" xmlns="http://www.w3.org/2000/svg" xmlns:xlink="http://www.w3.org/1999/xlink" x="0px" y="0px"
	 width="100px" height="61.245px" viewBox="0 19.377 100 61.245" enable-background="new 0 19.377 100 61.245" xml:space="preserve"
	>
<g id="Your_Icon">
	<path d="M93.938,36.106h-8.5c-3.348,0-6.062,2.714-6.062,6.061v8.985H20.623v-8.985c0-3.347-2.714-6.061-6.062-6.061H6.062
		C2.714,36.106,0,38.82,0,42.167v22.949c0,3.348,2.714,6.062,6.062,6.062h8.499h70.88h0.825h7.672c3.347,0,6.062-2.714,6.062-6.062
		V42.167C100,38.82,97.287,36.106,93.938,36.106z"/>
	<path d="M14.562,31.857c5.685,0,10.31,4.625,10.31,10.31v4.736H75.13v-4.736c0-5.685,4.624-10.31,10.312-10.31h6.007v-0.235
		c0-6.763-5.484-12.245-12.247-12.245H20.799c-6.763,0-12.248,5.482-12.248,12.245v0.235H14.562z"/>
	<rect x="6.062" y="75.426" width="14.704" height="5.196"/>
	<rect x="79.945" y="75.426" width="14.704" height="5.196"/>
</g>
</svg>
