<svg xmlns="http://www.w3.org/2000/svg" xmlns:xlink="http://www.w3.org/1999/xlink" xmlns:a="http://ns.adobe.com/AdobeSVGViewerExtensions/3.0/" version="1.1" x="0px" y="0px" width="100px" height="100px" viewBox="-21.107 -7.608 100 100" enable-background="new -21.107 -7.608 100 100" xml:space="preserve">
<defs>
</defs>
<path d="M26.399,84.734C26.416,84.8,26.433,84.867,26.399,84.734L26.399,84.734z"/>
<path d="M41.528,84.816c-0.042,0.004-0.099,0.024-0.129,0.018C41.257,84.898,41.463,84.841,41.528,84.816z"/>
<path d="M21.8,84.133L21.8,84.133C21.841,84.242,21.883,84.35,21.8,84.133z"/>
<path d="M8.7,80.934L8.7,80.934C8.716,81.034,8.708,80.984,8.7,80.934z"/>
<path d="M50.699,69.633c-0.406-0.657,0.463-2.046,0.2-3.199c-0.233-1-0.467-2.001-0.7-3c-1.073-2.729-2.099-4.957-3.199-7.2  c-0.267-0.7-0.534-1.4-0.801-2.101c-0.802-1.042-2.137-2.565-2.5-3.899l-0.097-0.119L43.5,49.933c-0.233-0.333-0.467-0.666-0.7-1  c0,0-2.55-2.717-2.4-3.899c-0.233-0.067-0.467-0.134-0.7-0.2c-0.228-1.64-0.475-2.434-1.1-4.2c-0.295-0.878-0.847-2.211-1.4-2.9  c0.166-0.261,0.724-0.645,0.724-0.645s1.362-1.344,2.177-1.355c0.938,0.812,1.922,2.495,2.2,3.9c0.633,0.133,1.267,0.267,1.899,0.4  c0.101-0.167,0.2-0.333,0.301-0.5c0.207-0.591-0.187-0.721-0.2-1.2c-0.038-1.305,0.464-1.594,0.1-3.4  c-0.018-0.281,0.011-0.397,0.011-0.397s0.084-0.354,0.289-0.603c1.187-1.421,3.096-2.494,2.7-5.2c-1.066-0.5-2.133-1-3.2-1.5  c-0.566-0.066-1.133-0.133-1.699-0.2c-1.309-0.714-3.227-1.998-4.9-2.5c-1.944-0.159-5.489-0.828-6.1-1.7  c-0.411-0.587,0.232-1.403,0.399-1.8c0.733-0.2,1.467-0.4,2.2-0.6c0.477-0.389-0.037-0.557,0.6-0.7  c-0.014-0.824,0.624-3.096,0.5-3.6c-0.172-0.705-1.333-4.003-1.8-4.6c0.238-0.384,0.378-0.548,0.4-1.2  c-3.181-2.446-7.756-0.694-9.601,1.8c-0.623,0.843-0.617,2.226-1.3,3c0.139,0.781,1.683,4.69,0.9,5.3  c0.341,0.633,1.037,1.304,1.7,1.6c-0.318,0.245-0.533,0.169-1,0.1c-0.793-2.022-3.6-4.197-3.4-6.7c-0.223-0.385-0.394-0.91-1-1.5  c-2.042-2.937,1.636-5.258,2.6-7.4c0.067-0.033,0.134-0.067,0.2-0.1c0.233,0.299,0.28,1.114,0.3,1.6  c0.233,0.133,0.467,0.267,0.7,0.4c0.7-0.4,1.4-0.8,2.101-1.2c0.175-1.148-0.01-2.584,0.1-3.9c2.139-0.197,3.059,1.012,5.6,1  c0.621-0.649,1.97-1.927,2.4-2.6c-0.144-0.553-0.096-1.002-0.5-1.3c-0.264-0.252-0.596-0.15-0.9-0.2  c-0.257,0.243-0.315,0.47-0.399,0.9c-2.914,0.643-4.931-2.923-7.601,0.1c-0.61-0.163-0.812-0.648-1.199-0.8  c-0.633-0.247-1.672,0.802-2.2,1c-0.2,0.7-0.4,1.4-0.601,2.1c-0.033,0.033-0.066,0.066-0.1,0.1c-0.033,0-0.154,0.15-0.188,0.15  c-0.308,0.212,0.063-0.046-0.313,0.25c-0.306,0.401-0.754,0.844-1.3,1c-0.625,0.587-0.933,0.873-1.3,1.5  c-0.252,0.265-0.302,0.215-0.601,0.4c-0.728,1.103-1.874,2.133-2.3,3.5c-0.326,1.048,0.354,1.7,0.5,2.3  c0.371,1.533,0.362,2.735,0.8,4.2c0.58,1.941,2.045,3.572,2.8,5.3c0.434,1.6,0.867,3.2,1.301,4.8c0.533,0.966,1.066,1.934,1.6,2.9  c0.566,1.5,1.134,3,1.7,4.5c1.725,3.07,5.612,4.74,4.6,9.701c-0.033,0.066-0.066,0.133-0.1,0.199c-1.849-0.191-3.255-1.556-5.3-1.9  c-0.977,0.594-1.996,1.173-2.5,2.201c-0.334,0.766-0.667,1.533-1,2.299c-3.594,3.195-5.674,0.389-5.601,8.001  c-3.502,1.468-4.785,4.27-3.3,8.3c-0.442,0.48-1.042,0.408-1.6,0.8c-0.045,0.031-3.312,4.349-3.4,4.4  c-0.066,0.033-0.111,0.082-0.164,0.136l-0.057,0.118L4.8,68.833c-0.752,1.034-2.99,4.302-4.2,4c-0.332,0.511-0.181,1.635-0.6,2.4  c0.033,0.1,0.379,0.131,0.479,0.162c0.256,0.148,0.519,0.53,0.519,0.53s0.488,0.926,1.201,1.207c0.197,1.202,1.479,1.032,2.5,0.801  c0.134,0.767,0.428,1.319,0.562,2.086c0.5,0.033,0.839,0.28,1.339,0.313c0.134,0.267,0.267,0.533,0.4,0.8  c0.267,0.034,0.533,0.067,0.8,0.101c0.298-0.015,0.208-0.171,0.899-0.3c-0.017-0.101-0.008-0.05,0,0  c0.317,0.162,1.022,0.057,1.3,0.199c0.267,0.367,0.533,0.733,0.8,1.101c0.67,0.687,2.254,0.821,3.6,0.8c0,0.233,0,0.467,0,0.7  c0.714,0.15,5.546,0.276,5.7,0.1c0.033-0.148,0.066-0.297,0.099-0.444c0.05-0.243,0.101-0.489,0.101-0.455  c-0.034,0.151-0.067,0.304-0.101,0.455c-0.05,0.239-0.099,0.478-0.099,0.444c0.333,0.033,1.366,0.267,1.7,0.3  c-0.042-0.108-0.083-0.216,0,0c1.302,0.435,3.205,0.509,4.6,0.601c-0.033-0.133-0.017-0.066,0,0c0.789,0.082,0.614-0.371,1.101-0.2  c1.232-0.1,2.467-0.2,3.699-0.3c0.236-0.252,1.196-1.103,2.301-0.8c0.406,0.11,0.792,0.53,0.8,0.8c0.428,0.274,2.706,0.544,3.2,0.7  c0.614,0.013,0.648,0.102,0.8-0.4c1.033,0.1,2.066,0.2,3.1,0.3c0.157-0.037,0.167-0.032,0.129-0.018  c0.367-0.038,1.102-0.442,1.371-0.382c0.276-0.156,1.02-0.489,1.5-0.7c1.562,1.883,4.723,2.8,7.9,2.2  c0.585-0.11,0.623-0.807,1-1.101c0.734-0.574,2.045-0.824,3.2-0.899C58.413,80.28,52.07,72.42,50.699,69.633z M36.673,33.807  c-0.751-0.241-2.265-0.821-2.35-1.2s0.6-1.8,0.6-1.8s0.751-1.337,1.351-1.6s2.244,0.951,3,0.9l2.199,0.25  c0.174,0.418-1.05,0.7-1.05,0.7l-1.55,1.7C38.873,32.757,37.424,34.048,36.673,33.807z"/>
</svg>