<svg xmlns="http://www.w3.org/2000/svg" xmlns:xlink="http://www.w3.org/1999/xlink" version="1.1" x="0px" y="0px" width="100px" height="100px" viewBox="0 0 100 100" enable-background="new 0 0 100 100" xml:space="preserve">
<g id="Captions">
</g>
<g id="Your_Icon">
	<path d="M25.31,46.416h50.135c0,0-19.513,52.506-25.064,52.506C44.836,98.922,25.31,46.416,25.31,46.416z"/>
	<path d="M80.458,28.218C79.856,13.655,66.615,2,50.38,2C34.136,2,20.904,13.655,20.303,28.218C17.779,29.266,16,31.783,16,34.733   c0,3.895,3.072,7.041,6.866,7.041c1.995,0,3.792-0.881,5.05-2.287c1.256,1.406,3.053,2.287,5.052,2.287   c2.354,0,4.433-1.225,5.671-3.076c1.24,1.852,3.313,3.076,5.674,3.076c2.328,0,4.376-1.182,5.613-2.999   c1.241,1.817,3.293,2.999,5.614,2.999c2.804,0,5.223-1.733,6.278-4.209c1.066,2.476,3.472,4.209,6.281,4.209   c1.92,0,3.65-0.804,4.895-2.111c1.244,1.308,2.975,2.111,4.898,2.111c3.792,0,6.861-3.146,6.861-7.041   C84.754,31.783,82.975,29.266,80.458,28.218z"/>
</g>
</svg>