<?xml version="1.0" encoding="utf-8"?>
<!-- Generator: Adobe Illustrator 17.1.0, SVG Export Plug-In . SVG Version: 6.00 Build 0)  -->
<!DOCTYPE svg PUBLIC "-//W3C//DTD SVG 1.1//EN" "http://www.w3.org/Graphics/SVG/1.1/DTD/svg11.dtd">
<svg version="1.1" id="Layer_1" xmlns="http://www.w3.org/2000/svg" xmlns:xlink="http://www.w3.org/1999/xlink" x="0px" y="0px"
	 viewBox="0 0 100 100" enable-background="new 0 0 100 100" xml:space="preserve">
<g id="Captions">
</g>
<g id="Your_Icon">
	<path d="M24.6,45.8h51.7c0,0-20.1,54.2-25.9,54.2C44.8,100,24.6,45.8,24.6,45.8z"/>
	<path d="M81.5,27.1C80.9,12,67.2,0,50.5,0c-16.8,0-30.4,12-31,27.1c-2.6,1.1-4.4,3.7-4.4,6.7c0,4,3.2,7.3,7.1,7.3
		c2.1,0,3.9-0.9,5.2-2.4c1.3,1.5,3.1,2.4,5.2,2.4c2.4,0,4.6-1.3,5.9-3.2c1.3,1.9,3.4,3.2,5.9,3.2c2.4,0,4.5-1.2,5.8-3.1
		c1.3,1.9,3.4,3.1,5.8,3.1c2.9,0,5.4-1.8,6.5-4.3c1.1,2.6,3.6,4.3,6.5,4.3c2,0,3.8-0.8,5.1-2.2c1.3,1.3,3.1,2.2,5.1,2.2
		c3.9,0,7.1-3.2,7.1-7.3C85.9,30.7,84.1,28.1,81.5,27.1z"/>
</g>
</svg>
