<svg xmlns="http://www.w3.org/2000/svg" xmlns:xlink="http://www.w3.org/1999/xlink" version="1.1" x="0px" y="0px" width="100px" height="100px" viewBox="0 0 100 100" enable-background="new 0 0 100 100" xml:space="preserve">
<g id="Captions">
</g>
<g id="Your_Icon">
	<path d="M100,24.305l-3.439-1.75l-3.095-1.559l-3.44-1.73l-1.71,3.598l-4.797,9.744C77.412,16.219,61.635,4.543,43.117,4.543   C19.304,4.543,0,23.848,0,47.66s19.304,43.117,43.117,43.117c4.022,0,7.914-0.557,11.607-1.59l0.884,3.455L56.296,95h3.055h0.421   h20.321h0.422h3.056l0.687-2.436L95.59,43.589L96.675,39h-4.174l5.788-11.49L100,24.305z M43.119,78.008   c-16.763,0-30.35-13.588-30.35-30.348c0-16.762,13.587-30.43,30.35-30.43C57.647,17.23,69.786,27,72.762,41H68.77   c-2.897-12-13.281-19.879-25.652-19.879c-14.613,0-26.457,11.886-26.457,26.499c0,14.611,11.844,26.479,26.457,26.479   c3.333,0,6.52-0.612,9.457-1.737l1.022,3.781C50.33,77.345,46.801,78.008,43.119,78.008z M86.303,43h5.544L80.515,91h-0.422H59.771   h-0.421L48.017,43h34.425l9.313-18.66l3.096,1.503L86.303,43z"/>
</g>
</svg>