<?xml version="1.0" encoding="utf-8"?>
<!-- Generator: Adobe Illustrator 17.1.0, SVG Export Plug-In . SVG Version: 6.00 Build 0)  -->
<!DOCTYPE svg PUBLIC "-//W3C//DTD SVG 1.1//EN" "http://www.w3.org/Graphics/SVG/1.1/DTD/svg11.dtd">
<svg version="1.1" id="Layer_1" xmlns="http://www.w3.org/2000/svg" xmlns:xlink="http://www.w3.org/1999/xlink" x="0px" y="0px"
	 viewBox="0 -25 100 100" enable-background="new 0 -25 100 100" xml:space="preserve">
<circle cx="28" cy="16" r="7.6"/>
<path d="M90.3,20.8L84.7,4.2V0H2.8v36.1H0v6.2h17.5c0-5.8,4.7-10.4,10.4-10.4c5.8,0,10.4,4.7,10.4,10.4h32.5
	c0-5.8,4.7-10.4,10.4-10.4c4,0,7.5,2.3,9.3,5.7c0.6,1.2,1,2.6,1.1,4c0,0.2,0,0.5,0,0.7h8.3V25L90.3,20.8z M15.6,12.5
	c0,0.8-0.6,1.4-1.4,1.4h-0.9V25c0,0.8-0.6,1.4-1.4,1.4c-0.8,0-1.4-0.6-1.4-1.4V13.9H9.7c-0.8,0-1.4-0.6-1.4-1.4V6.1
	c0-0.3,0.2-0.5,0.5-0.5s0.5,0.2,0.5,0.5v5h1v-5c0-0.3,0.2-0.5,0.5-0.5s0.5,0.2,0.5,0.5v5h1v-5c0-0.3,0.2-0.5,0.5-0.5
	s0.5,0.2,0.5,0.5v5h1v-5c0-0.3,0.2-0.5,0.5-0.5s0.5,0.2,0.5,0.5L15.6,12.5L15.6,12.5z M28,26.4c-5.8,0-10.4-4.7-10.4-10.4
	c0-5.8,4.7-10.4,10.4-10.4c5.8,0,10.4,4.7,10.4,10.4C38.4,21.7,33.7,26.4,28,26.4z M45.3,25c0,0.8-0.6,1.4-1.4,1.4
	c-0.8,0-1.4-0.6-1.4-1.4v-6.9h-1.4V7.6c0-1.2,0.9-2.1,2.1-2.1c1.2,0,2.1,0.9,2.1,2.1V25z M72.2,20.8V8.3h9.7l4.2,12.5H72.2z"/>
<path d="M28,34.7c-4.2,0-7.6,3.4-7.6,7.6c0,4.2,3.4,7.6,7.6,7.6c4.2,0,7.6-3.4,7.6-7.6C35.6,38.1,32.2,34.7,28,34.7z M28,46.5
	c-2.3,0-4.2-1.9-4.2-4.2c0-2.3,1.9-4.2,4.2-4.2c2.3,0,4.2,1.9,4.2,4.2C32.1,44.7,30.3,46.5,28,46.5z"/>
<path d="M81.2,34.7c-4.2,0-7.6,3.4-7.6,7.6c0,4.2,3.4,7.6,7.6,7.6s7.6-3.4,7.6-7.6C88.9,38.1,85.5,34.7,81.2,34.7z M81.2,46.5
	c-2.3,0-4.2-1.9-4.2-4.2c0-2.3,1.9-4.2,4.2-4.2s4.2,1.9,4.2,4.2C85.4,44.7,83.6,46.5,81.2,46.5z"/>
</svg>
