<?xml version="1.0" encoding="utf-8"?>
<!-- Generator: Adobe Illustrator 17.1.0, SVG Export Plug-In . SVG Version: 6.00 Build 0)  -->
<!DOCTYPE svg PUBLIC "-//W3C//DTD SVG 1.1//EN" "http://www.w3.org/Graphics/SVG/1.1/DTD/svg11.dtd">
<svg version="1.1" id="Your_Icon" xmlns="http://www.w3.org/2000/svg" xmlns:xlink="http://www.w3.org/1999/xlink" x="0px" y="0px"
	 viewBox="0 0 100 100" enable-background="new 0 0 100 100" xml:space="preserve">
<path d="M75.5,92.1c-6.7-1.9-6.1-8.8-6.1-8.8V62.8c0.2-4.7,2.5-5.8,2.5-5.8C96.1,46.6,83.3,4.5,83.3,4.5C82.1-0.1,80.4,0,80.4,0
	H68.1h-1.2H54.6c0,0-1.7-0.1-2.9,4.5c0,0-12.9,42.1,11.3,52.4c0,0,2.3,1.1,2.5,5.8v20.5c0,0,0.5,6.9-6.1,8.8c0,0-11.1,2.7-10.9,4.6
	c0,0-1.1,4.5,17.9,4h2.1c19,0.5,17.9-4,17.9-4C86.6,94.7,75.5,92.1,75.5,92.1z"/>
<path d="M33.5,30.5L30.9,0.8C30.8,0.4,30.4,0,30,0c-0.5,0-0.9,0.4-0.9,0.9l0.2,27.8c0,0.7-0.6,1.2-1.2,1.2s-1.2-0.6-1.2-1.2
	L26.4,0.9C26.4,0.4,26,0,25.5,0c-0.5,0-0.9,0.4-0.9,0.9v27.8c0,0.7-0.6,1.2-1.2,1.2s-1.2-0.6-1.2-1.2V0.9c0-0.5-0.4-0.9-0.9-0.9
	c-0.5,0-0.9,0.4-0.9,0.9l-0.5,27.8c0,0.7-0.6,1.2-1.2,1.2s-1.2-0.6-1.2-1.2l0.2-27.8c0-0.5-0.4-0.9-0.9-0.9c-0.5,0-0.8,0.4-0.9,0.8
	l-2.7,29.7C13.1,31,13,31.4,13,31.9c0,2,0.6,3.9,1.6,5.5l0,0l4,6.4c0.9,1.5,1.3,3.2,1.3,5.1l-2.7,44.5c0,3.4,2.7,6.1,6.1,6.1
	c3.4,0,6.1-2.7,6.1-6.1l-2.7-44.5c0-1.8,0.5-3.6,1.4-5.1l4-6.4v0c1-1.6,1.6-3.5,1.6-5.5C33.6,31.4,33.6,31,33.5,30.5z"/>
</svg>
