<svg xmlns="http://www.w3.org/2000/svg" xmlns:xlink="http://www.w3.org/1999/xlink" version="1.1" id="Your_Icon" x="0px" y="0px" width="100px" height="100px" viewBox="0 0 100 100" enable-background="new 0 0 100 100" xml:space="preserve">
<circle cx="49.677" cy="35.638" r="9.332"/>
<circle cx="77.467" cy="39.087" r="7.765"/>
<g>
	<path d="M96.085,70.657l-6.016-14.561c-0.802,0.415-1.298,0.516-2.512,0.885c-0.938,0.273-5.024,1.277-14.509,1.277   c-2.709,0-4.978-0.084-6.876-0.206v10.895c0,2.923,2.369,5.294,5.294,5.294h11.999c2.278,0,4.206-1.449,4.952-3.469l1.076,2.606   c0.753,1.822,2.836,2.688,4.656,1.937C95.969,74.564,96.837,72.479,96.085,70.657z"/>
</g>
<circle cx="21.889" cy="39.087" r="7.764"/>
<g>
	<path d="M3.271,70.657l6.015-14.561c0.802,0.415,1.297,0.516,2.512,0.885c0.938,0.273,5.025,1.277,14.509,1.277   c2.709,0,4.978-0.084,6.876-0.206v10.895c0,2.923-2.37,5.294-5.294,5.294h-12c-2.278,0-4.206-1.449-4.951-3.469l-1.076,2.606   c-0.753,1.822-2.836,2.688-4.657,1.937C3.387,74.564,2.519,72.479,3.271,70.657z"/>
</g>
<path d="M87.352,49c0,0-9.371,1.273-14.408,1.273c-3.383,0-8.709-0.438-11.85-0.814C59.972,48.47,58.503,48,56.89,48H42.466  c-1.614,0-3.083,0.47-4.205,1.459c-3.141,0.377-8.467,0.882-11.849,0.882c-5.037,0-14.408-1.307-14.408-1.307  c-1.853,0-3.356,1.485-3.356,3.337c0,1.854,0.955,2.632,3.767,3.469c0,0,3.181,1.149,13.84,1.149c4.326,0,7.745-0.214,9.745-0.463  v13.472C36,73.514,38.951,76,42.466,76H56.89c3.514,0,6.11-2.486,6.11-6.001V56.527c3,0.249,5.598,0.459,9.922,0.459  c10.658,0,13.954-1.154,13.954-1.154c2.812-0.837,3.8-1.622,3.8-3.477C90.676,50.503,89.204,49,87.352,49z"/>
</svg>