<?xml version="1.0" encoding="utf-8"?>
<!-- Generator: Adobe Illustrator 17.1.0, SVG Export Plug-In . SVG Version: 6.00 Build 0)  -->
<!DOCTYPE svg PUBLIC "-//W3C//DTD SVG 1.1//EN" "http://www.w3.org/Graphics/SVG/1.1/DTD/svg11.dtd">
<svg version="1.1" id="Layer_1" xmlns="http://www.w3.org/2000/svg" xmlns:xlink="http://www.w3.org/1999/xlink" x="0px" y="0px"
	 viewBox="0 0 100 100" enable-background="new 0 0 100 100" xml:space="preserve">
<path d="M23.2,54.8c0-3,2.4-5.3,5.4-5.3s5.4,2.4,5.4,5.3c0,3-2.4,5.4-5.4,5.4C25.6,60.1,23.2,57.7,23.2,54.8"/>
<path d="M74.5,51.5c2.4,0,4.3,1.8,4.3,4.2v11.2H36.1V51.5H74.5z"/>
<path d="M31.2,66.9c1.5,0,2.6-1.2,2.6-2.6c0-1.5-1.2-2.6-2.6-2.6h-7.5c-1.5,0-2.6,1.2-2.6,2.6c0,1.5,1.2,2.6,2.6,2.6H31.2z"/>
<path d="M81.3,77.9v11.7h6.9V52.5c0-1.9-1.6-3.5-3.5-3.5c-1.9,0-3.5,1.6-3.5,3.5v17H19.2V45.6c0-1.9-1.7-3.5-3.6-3.5l0,0
	c-1.9,0-3.4,1.6-3.4,3.5v44.1h6.9V77.9H81.3z"/>
<path d="M81.3,46.6v11.7h6.9V21.2c0-1.9-1.6-3.5-3.5-3.5c-1.9,0-3.5,1.6-3.5,3.5v17H19.2V14.2c0-1.9-1.7-3.5-3.6-3.5l0,0
	c-1.9,0-3.4,1.6-3.4,3.5v44.1h6.9V46.6H81.3z"/>
<path d="M23.2,23.4c0-3,2.4-5.3,5.4-5.3s5.4,2.4,5.4,5.3c0,3-2.4,5.4-5.4,5.4C25.6,28.6,23.2,26.2,23.2,23.4"/>
<path d="M31.2,35.5c1.5,0,2.6-1.2,2.6-2.6c0-1.5-1.2-2.6-2.6-2.6h-7.5c-1.5,0-2.6,1.2-2.6,2.6"/>
<path d="M74.5,20.1c2.4,0,4.3,1.8,4.3,4.2v11.2H36.1V20.1H74.5z"/>
<path d="M31.2,35.5c1.5,0,2.6-1.2,2.6-2.6c0-1.5-1.2-2.6-2.6-2.6h-7.5c-1.5,0-2.6,1.2-2.6,2.6c0,1.5,1.2,2.6,2.6,2.6H31.2z"/>
</svg>
