<?xml version="1.0" encoding="utf-8"?>
<!-- Generator: Adobe Illustrator 17.1.0, SVG Export Plug-In . SVG Version: 6.00 Build 0)  -->
<!DOCTYPE svg PUBLIC "-//W3C//DTD SVG 1.1//EN" "http://www.w3.org/Graphics/SVG/1.1/DTD/svg11.dtd">
<svg version="1.1" id="Your_Icon" xmlns="http://www.w3.org/2000/svg" xmlns:xlink="http://www.w3.org/1999/xlink" x="0px" y="0px"
	 viewBox="0 0 100 100" enable-background="new 0 0 100 100" xml:space="preserve">
<path d="M90.3,24.9H95l-8.6-5v-6h-4v3.6L74.8,13L54.7,24.9h4.7v12H40.6v-12h4.7L25.2,13L5,24.9h4.7v57.5h-2v3.7h84.7v-3.7h-2V24.9z
	 M47.7,49.9h4.6v4.6h-4.6V49.9z M47.7,59h4.6v4.6h-4.6V59z M22.9,76.2h-4.6v-4.6h4.6V76.2z M22.9,67.2h-4.6v-4.6h4.6V67.2z
	 M22.9,58.1h-4.6v-4.6h4.6V58.1z M22.9,49h-4.6v-4.6h4.6V49z M22.9,40h-4.6v-4.6h4.6V40z M21.7,24.7c0-1.9,1.5-3.5,3.5-3.5
	c1.9,0,3.5,1.5,3.5,3.5c0,1.9-1.5,3.5-3.5,3.5C23.2,28.2,21.7,26.6,21.7,24.7z M32,76.2h-4.6v-4.6H32V76.2z M32,67.2h-4.6v-4.6H32
	V67.2z M32,58.1h-4.6v-4.6H32V58.1z M32,49h-4.6v-4.6H32V49z M32,40h-4.6v-4.6H32V40z M41.1,63.6h-2.4V59h2.4V63.6z M41.1,54.6h-2.4
	v-4.6h2.4V54.6z M52.8,82.6h-5.5v-8.7h5.5V82.6z M61.4,63.6h-2.4V59h2.4V63.6z M61.4,54.6h-2.4v-4.6h2.4V54.6z M72.6,76.2H68v-4.6
	h4.6V76.2z M72.6,67.2H68v-4.6h4.6V67.2z M72.6,58.1H68v-4.6h4.6V58.1z M72.6,49H68v-4.6h4.6V49z M72.6,40H68v-4.6h4.6V40z
	 M71.4,24.7c0-1.9,1.5-3.5,3.5-3.5c1.9,0,3.5,1.5,3.5,3.5c0,1.9-1.5,3.5-3.5,3.5C72.9,28.2,71.4,26.6,71.4,24.7z M81.7,76.2h-4.6
	v-4.6h4.6V76.2z M81.7,67.2h-4.6v-4.6h4.6V67.2z M81.7,58.1h-4.6v-4.6h4.6V58.1z M81.7,49h-4.6v-4.6h4.6V49z M81.7,40h-4.6v-4.6h4.6
	V40z"/>
</svg>
