<svg xmlns="http://www.w3.org/2000/svg" xmlns:xlink="http://www.w3.org/1999/xlink" version="1.1" x="0px" y="0px" width="100px" height="100px" viewBox="0 0 100 100" enable-background="new 0 0 100 100" xml:space="preserve">
<g id="Captions" display="none">
	<rect x="-330" display="inline" width="185" height="99"/>
	<rect x="-138" y="-36" display="inline" width="100" height="30"/>
	<text transform="matrix(1 0 0 1 -72 -19.5)" display="inline" fill="#000000" font-family="'Helvetica'" font-size="2.4">http://thenounproject.com</text>
	<text transform="matrix(1 0 0 1 -130.834 -24.5)" display="inline"><tspan x="0" y="0" fill="#000000" font-family="'Helvetica-Bold'" font-size="6.1578">The Noun Project</tspan><tspan x="1.12" y="4.8" fill="#000000" font-family="'Helvetica-Bold'" font-size="4">Icon Template</tspan></text>
	
		<text transform="matrix(1 0 0 1 -316.5 10.5)" display="inline" fill="#000000" font-family="'Helvetica-Bold'" font-size="6.1578">Reminders</text>
	<line display="inline" fill="#000000" stroke="#FFFFFF" stroke-miterlimit="10" x1="-130" y1="-14.5" x2="-120" y2="-14.5"/>
	<line display="inline" fill="#000000" stroke="#FFFFFF" stroke-miterlimit="10" x1="-317" y1="16.5" x2="-300" y2="16.5"/>
	<g display="inline">
		<g>
			<g>
				<rect x="-308.802" y="31.318" fill="#000000" width="8.721" height="8.642"/>
				<path fill="#000000" d="M-302.455,42.312h4.747v-4.703h-4.747V42.312z M-297.266,42.749h-5.63V37.17h5.63V42.749      L-297.266,42.749z M-304.221,44.062h8.279v-8.203h-8.279V44.062L-304.221,44.062z M-295.5,44.5h-9.163v-9.079h9.163V44.5      L-295.5,44.5z"/>
				<polygon fill="#000000" points="-304.149,44.133 -304.292,43.991 -296.013,35.787 -295.871,35.929     "/>
			</g>
		</g>
	</g>
	<rect x="-317" y="58" display="inline" fill="none" width="35" height="32.5"/>
	<text transform="matrix(1 0 0 1 -317 60.1572)" display="inline"><tspan x="0" y="0" fill="#000000" font-family="'Helvetica-Bold'" font-size="3">Strokes</tspan><tspan x="0" y="5" fill="#000000" font-family="'Helvetica'" font-size="2.4">Try to keep strokes at 4px</tspan><tspan x="0" y="10" fill="#000000" font-family="'Helvetica'" font-size="2.4">Minimum stroke weight is 2px</tspan><tspan x="0" y="14.5" fill="#000000" font-family="'Helvetica'" font-size="2.4">For thicker strokes use even </tspan><tspan x="0" y="17.5" fill="#000000" font-family="'Helvetica'" font-size="2.4">numbers: 6px, 8px etc.</tspan><tspan x="0" y="22" fill="#000000" font-family="'Helvetica-Bold'" font-size="2.4">Remember to expand strokes </tspan><tspan x="0" y="25" fill="#000000" font-family="'Helvetica-Bold'" font-size="2.4">before saving as an SVG </tspan></text>
	<rect x="-274.5" y="58" display="inline" fill="none" width="35" height="32.5"/>
	<text transform="matrix(1 0 0 1 -274.5 60.1572)" display="inline"><tspan x="0" y="0" fill="#000000" font-family="'Helvetica-Bold'" font-size="3">Size</tspan><tspan x="0" y="5" fill="#000000" font-family="'Helvetica'" font-size="2.4">Cannot be wider or taller than </tspan><tspan x="0" y="8.5" fill="#000000" font-family="'Helvetica'" font-size="2.4">100px (artboard size)</tspan><tspan x="0" y="13.5" fill="#000000" font-family="'Helvetica'" font-size="2.4">Scale your icon to fill as much of </tspan><tspan x="0" y="16.5" fill="#000000" font-family="'Helvetica'" font-size="2.4">the artboard as possible</tspan></text>
	<rect x="-232" y="58" display="inline" fill="none" width="35" height="32.5"/>
	<text transform="matrix(1 0 0 1 -232 60.1572)" display="inline"><tspan x="0" y="0" fill="#000000" font-family="'Helvetica-Bold'" font-size="3">Ungroup</tspan><tspan x="0" y="5" fill="#000000" font-family="'Helvetica'" font-size="2.4">If your design has more than one </tspan><tspan x="0" y="8" fill="#000000" font-family="'Helvetica'" font-size="2.4">shape, make sure to ungroup</tspan></text>
	<rect x="-188" y="58" display="inline" fill="none" width="35" height="32.5"/>
	<text transform="matrix(1 0 0 1 -188 60.1572)" display="inline"><tspan x="0" y="0" fill="#000000" font-family="'Helvetica-Bold'" font-size="3">Save as</tspan><tspan x="0" y="5" fill="#000000" font-family="'Helvetica'" font-size="2.4">Save as .SVG and make sure </tspan><tspan x="0" y="8" fill="#000000" font-family="'Helvetica'" font-size="2.4">&#8220;Use Artboards&#8221; is checked</tspan></text>
	
		<text transform="matrix(1.0074 0 0 1 -263.542 30.5933)" display="inline" fill="#000000" font-family="'Helvetica'" font-size="2.5731">100px</text>
	
		<text transform="matrix(1.0074 0 0 1 -179 39)" display="inline" fill="#000000" font-family="'Helvetica-Bold'" font-size="5.1462">.SVG</text>
	<rect x="-264.514" y="34.815" display="inline" fill="#000000" width="10.261" height="10.185"/>
	<rect x="-264.477" y="31.766" display="inline" fill="#000000" width="0.522" height="2.337"/>
	<rect x="-254.812" y="31.766" display="inline" fill="#000000" width="0.523" height="2.337"/>
	<rect x="-265" y="32.337" display="inline" fill="#000000" width="11.233" height="0.572"/>
	<g display="inline">
		<rect x="-221.805" y="33.844" fill="#000000" width="10.305" height="10.156"/>
		<rect x="-214.809" y="28.707" fill="#000000" width="3.308" height="3.261"/>
	</g>
	<rect x="-316.5" y="22.5" display="inline" fill="#000000" stroke="#FFFFFF" stroke-miterlimit="10" width="30" height="30"/>
	<rect x="-274.5" y="22.5" display="inline" fill="#000000" stroke="#FFFFFF" stroke-miterlimit="10" width="30" height="30"/>
	<rect x="-231.5" y="22.5" display="inline" fill="#000000" stroke="#FFFFFF" stroke-miterlimit="10" width="30" height="30"/>
	<rect x="-187.5" y="22.5" display="inline" fill="#000000" stroke="#FFFFFF" stroke-miterlimit="10" width="30" height="30"/>
</g>
<g id="Your_Icon">
	<polyline points="-111.427,197.963 -110.397,189.215 -108.164,171.162 -109.504,171.698 -113.615,173.129 -124.697,189.93    -124.059,200.566 -126.038,206.284 -121.062,208.787  "/>
	<path d="M-115.849,203.961"/>
	<polygon points="-106.904,170 -110.438,200.854 -73.017,200.854 -73.017,170  "/>
	<circle cx="-64.22" cy="210.888" r="7.106"/>
	<circle cx="-96.823" cy="210.888" r="7.105"/>
	<path d="M-115.13,204.646"/>
	<path d="M-112.024,201.99l0.488-2.468l-8.339,9.478H-111h1.108H-106h1.391c0-1.891,2.854-6.189,7.786-6.202   c4.486-0.012,7.105,2.928,7.729,6.202H-73v-5.219v-0.531V202L-112.024,201.99z"/>
	<path d="M-82.506,83.915"/>
	<circle cx="44.96" cy="164.408" r="5.349"/>
	<path d="M64.816,176.579c0,0-0.01,0.008-0.021,0.024l-0.34-1.087l-0.739,0.244l-0.029,2.096c-0.301,0.34-3.048,3.021-3.434,3.619   l-5.918-0.926l-5.413-7.414c0,0-1.688-1.915-3.965-1.915c-2.275,0-3.975,1.915-3.975,1.915l-6.84,6.839   c-0.274,0.216-0.499,0.503-0.637,0.85c-0.09,0.233-0.132,0.472-0.136,0.708c0,0.022-0.003,0.045-0.003,0.067   c0,0.011,0.002,0.021,0.003,0.03c0.012,0.498,0.205,0.991,0.585,1.371c0.276,0.276,0.613,0.452,0.969,0.533l3.538,1.39   c-6.17,2.235-6.273,13.012-8.176,17.407c-2.765,6.389-8.481,11.869-14.975,11.869v1.703c7.449,0,13.449-4.99,16.429-12.686   c2.988-6.786,1.598-15.128,8.72-17.094v4.387c0,0.042,0.001,0.081,0.003,0.124l-8.972,21.666c-0.566,1.364,0.083,2.929,1.447,3.495   c1.364,0.565,2.931-0.084,3.495-1.45l8.526-20.581l8.525,20.581c0.564,1.364,2.129,2.015,3.494,1.45   c1.365-0.565,2.013-2.132,1.449-3.495l-8.974-21.665c0.001-0.041,0.003-0.083,0.003-0.123v-2.508   c0.258,0.199,0.645,0.384,0.9,0.589c1.646,1.328,2.131,2.685,4.5,2.703c2.396,0.019,4.593-2.046,4.984-4.406l0.188,0.015   c0,0,0.297,0.017,0.594-0.515c0.236-0.456,0.228-0.385,0.42-0.859c0.852,0.132,2.154,0.203,2.397-1.976   c0-0.489-0.178-0.939-0.47-1.288c0.035-0.152,1.514-1.772,1.617-1.887c0.873,0.698,0.696,0.771,2.004,1.526l3.262-3.026   c-2.115-1.222-4.074-1.923-4.815-2.171L64.816,176.579L64.816,176.579z M40.46,179.333v2.064l-1.483-0.581L40.46,179.333z    M54.857,189.593c-1.855-0.055-2.02-1.052-3.563-2.302c-0.567-0.46-1.16-0.938-1.837-1.38v-5.507c0,0,1.626,2.565,2.387,3.327   c0.84,0.839,1.996,0.831,1.996,0.831l4.404,0.69c-0.134,0.307-0.127,0.272-0.26,0.56c-0.047,0.531,0.279,0.734,0.279,0.734h0.033   C57.992,187.812,56.489,189.641,54.857,189.593z"/>
	<rect x="68.702" y="178.767" transform="matrix(0.6691 0.7432 -0.7432 0.6691 158.084 8.3276)" width="1.978" height="5.838"/>
	<path d="M72.086,189.06c0.004-0.662-1.181-2.295-1.181-2.295s-1.21,1.616-1.215,2.279c-0.007,0.662,0.527,1.198,1.188,1.203   C71.541,190.252,72.081,189.722,72.086,189.06z"/>
	<path d="M76.445,189.092c0.005-0.663-1.181-2.294-1.181-2.294s-1.212,1.614-1.217,2.275c-0.005,0.663,0.526,1.202,1.188,1.205   C75.899,190.285,76.439,189.754,76.445,189.092z"/>
	<path d="M72.03,196.631c0.004-0.662-1.181-2.296-1.181-2.296s-1.209,1.616-1.215,2.278c-0.005,0.663,0.526,1.202,1.188,1.207   C71.486,197.825,72.025,197.292,72.03,196.631z"/>
	<path d="M76.389,196.663c0.006-0.662-1.182-2.296-1.182-2.296s-1.209,1.615-1.215,2.278c-0.006,0.661,0.525,1.202,1.188,1.208   C75.845,197.857,76.384,197.322,76.389,196.663z"/>
	<path d="M74.239,192.861c0.004-0.663-1.184-2.298-1.184-2.298s-1.209,1.618-1.212,2.28c-0.004,0.662,0.526,1.202,1.186,1.208   C73.692,194.057,74.233,193.523,74.239,192.861z"/>
	<path d="M78.594,192.892c0.006-0.661-1.181-2.296-1.181-2.296s-1.21,1.617-1.215,2.279c-0.006,0.663,0.529,1.203,1.189,1.208   C78.05,194.087,78.589,193.556,78.594,192.892z"/>
	<path d="M69.881,192.83c0.006-0.664-1.182-2.299-1.182-2.299s-1.21,1.617-1.215,2.28c-0.004,0.661,0.529,1.202,1.189,1.207   C69.335,194.024,69.876,193.491,69.881,192.83z"/>
	<path d="M-57.133,176H-72v30h1.291c0,0,1.138-1.738,3.279-2.52c2.273-0.829,4.581-0.914,6.836,0.124   c3.543,1.631,4.301,5.396,4.301,5.396H-49v-20.32L-57.133,176z M-70,189v-11h11.665l7.227,11H-70z"/>
	<path id="path6080-4" d="M70.061,202.609c-0.125,0-0.103,0.463-0.103,0.826v1.651c0,1.679,1.019,2.53,2.672,2.479v6.608   c-0.827-1.651-3.306-4.131-5.783-3.304c0,0,2.065,4.956,6.195,4.956c4.131,0,6.195-4.956,6.195-4.956   c-2.478-0.827-4.957,1.651-5.782,3.304v-6.608c1.651,0.051,2.725-0.801,2.725-2.479v-1.651c0-0.364-0.026-0.826-0.135-0.826   c-0.371,0-0.556,0.196-0.719,0.359l-0.859,0.922L73.757,203c-0.193-0.174-0.462-0.391-0.715-0.391c-0.247,0-0.577,0.21-0.798,0.466   l-0.621,0.847l-0.734-0.781C70.662,202.914,70.482,202.609,70.061,202.609z"/>
	<path d="M65.8,16H25.802C22.203,16,19,18.666,19,22.264V86h15V71.205c-1.204,0.574-2,1.012-2,1.012v-3.712c0,0,6.719-3.8,13-3.8   c6.285,0,13,3.8,13,3.8v3.712c0,0-0.723-0.466-2-1.068V86h16V22.264C72,18.666,69.397,16,65.8,16z M30,69h-4v-4h4V69z M34,63h-8v-8   h8V63z M34,52h-8v-8h8V52z M34,41h-8v-8h8V41z M34,30h-8v-8h8V30z M44,63h-8v-8h8V63z M44,52h-8v-8h8V52z M44,41h-8v-8h8V41z    M44,30h-8v-8h8V30z M55,63h-9v-8h9V63z M55,52h-9v-8h9V52z M55,41h-9v-8h9V41z M55,30h-9v-8h9V30z M66,69h-4v-4h4V69z M66,63h-9   v-8h9V63z M66,52h-9v-8h9V52z M66,41h-9v-8h9V41z M66,30h-9v-8h9V30z"/>
	<rect x="36" y="71" width="18" height="15"/>
	<path d="M88,22.847C88,20.723,86.277,19,84.152,19h-6.305C75.723,19,74,20.723,74,22.847v49.305C74,74.277,75.723,76,77.848,76   h6.305C86.277,76,88,74.277,88,72.152V22.847z M79.979,24.089l0.938-1.899l0.938,1.899l2.094,0.304l-1.516,1.478l0.357,2.088   l-1.873-0.985l-1.875,0.985l0.357-2.088l-1.516-1.478L79.979,24.089z M79.979,32.241l0.938-1.898l0.938,1.898l2.094,0.305   l-1.516,1.478l0.357,2.088l-1.873-0.986l-1.875,0.986l0.357-2.088l-1.516-1.478L79.979,32.241z M79.979,40.394l0.938-1.899   l0.938,1.899l2.094,0.304l-1.516,1.479l0.357,2.087l-1.873-0.986l-1.875,0.986l0.357-2.087l-1.516-1.479L79.979,40.394z    M79.979,48.527l0.938-1.898l0.938,1.898l2.094,0.305l-1.516,1.479l0.357,2.087l-1.873-0.986l-1.875,0.986l0.357-2.087   l-1.516-1.479L79.979,48.527z M79.979,56.681l0.938-1.898l0.938,1.898l2.094,0.305l-1.516,1.478l0.357,2.087l-1.873-0.984   l-1.875,0.984l0.357-2.087l-1.516-1.478L79.979,56.681z M85,71h-2v-2h-3v2h-2v-6h2v2h3v-2h2V71z"/>
	<path d="M183.38,74.123c-0.172,0-0.346-0.037-0.506-0.116l-37.498-18.391c-0.375-0.185-0.621-0.559-0.642-0.978   c-0.02-0.417,0.189-0.813,0.546-1.033l20.007-12.301c0.252-0.155,0.553-0.207,0.843-0.145l15.918,3.412l5.541-8.29   c0.305-0.456,0.889-0.632,1.396-0.423l40.324,16.723c0.468,0.146,0.807,0.581,0.807,1.097c0,0.627-0.503,1.137-1.127,1.148   c-0.143,0.007-0.302-0.02-0.451-0.079l-6.07-2.37l-7.577,12.176c-0.222,0.354-0.611,0.562-1.036,0.54L196.749,64.2l-12.671,9.688   C183.873,74.043,183.627,74.123,183.38,74.123z M149.636,54.309l33.725,16.374l11.386-8.702c0.591-0.497,1.206-0.451,1.486-0.436   l16.29,0.954l7.234-11.392l-30.426-12.636l-5.45,8.154c-0.261,0.391-1.092,0.454-1.552,0.357l-15.716-3.028L149.636,54.309z"/>
	<path d="M174.778,63.575c-0.1,0-0.203-0.018-0.303-0.056c-0.835-0.313-1.374-0.573-1.397-0.583c-0.428-0.207-0.606-0.723-0.4-1.151   c0.208-0.428,0.723-0.608,1.151-0.401c0.005,0.003,0.496,0.239,1.251,0.522c0.447,0.168,0.673,0.664,0.505,1.108   C175.455,63.361,175.128,63.575,174.778,63.575z"/>
	<path d="M179.789,64.638c-0.616,0-1.285-0.062-1.986-0.186c-0.469-0.083-0.782-0.528-0.7-0.998   c0.082-0.468,0.529-0.782,0.998-0.699c1.137,0.199,2.144,0.212,2.939,0.033c0.47-0.104,0.926,0.188,1.031,0.651   c0.104,0.465-0.188,0.926-0.652,1.03C180.922,64.581,180.372,64.638,179.789,64.638z M183.802,62.604   c-0.126,0-0.252-0.026-0.373-0.084c-0.429-0.206-0.61-0.721-0.404-1.15c0.056-0.114,0.082-0.249,0.082-0.41   c0-0.327-0.118-0.924-0.678-1.909c-0.236-0.413-0.091-0.94,0.322-1.175c0.412-0.235,0.939-0.092,1.176,0.322   c0.607,1.069,0.904,1.973,0.904,2.762c0,0.42-0.086,0.808-0.252,1.156C184.431,62.426,184.122,62.604,183.802,62.604z"/>
	<path d="M197.089,59.299c-0.646,0-1.443-0.158-2.438-0.484c-0.453-0.147-0.7-0.635-0.551-1.086c0.147-0.452,0.634-0.7,1.087-0.552   c0.807,0.265,1.447,0.397,1.902,0.397c0.288,0,0.403-0.055,0.432-0.071l0.127-0.078c0.402-0.255,0.934-0.138,1.188,0.266   c0.256,0.401,0.138,0.935-0.265,1.189l-0.165,0.102C198.053,59.192,197.611,59.299,197.089,59.299z M191.854,57.619   c-0.119,0-0.241-0.025-0.357-0.079c-0.864-0.396-1.817-0.859-3.002-1.458c-0.425-0.214-0.595-0.733-0.381-1.158   c0.217-0.424,0.735-0.594,1.158-0.38c1.164,0.59,2.099,1.043,2.942,1.43c0.433,0.198,0.623,0.71,0.424,1.143   C192.494,57.433,192.182,57.619,191.854,57.619z M181.271,56.78c-0.252,0-0.503-0.109-0.673-0.322   c-0.557-0.694-1.134-1.369-1.692-2.023l-0.414-0.484c-0.309-0.362-0.266-0.906,0.097-1.215c0.363-0.308,0.908-0.265,1.215,0.098   l0.411,0.481c0.568,0.664,1.154,1.35,1.729,2.065c0.297,0.371,0.238,0.913-0.134,1.211C181.651,56.719,181.461,56.78,181.271,56.78   z M199.888,56.393c-0.015,0-0.031-0.001-0.047-0.002c-0.476-0.025-0.84-0.431-0.814-0.907l0.002-0.064   c0-0.243-0.047-0.421-0.069-0.495l-1.135-1.914c-0.243-0.409-0.108-0.938,0.302-1.181c0.407-0.242,0.938-0.108,1.181,0.302   l1.223,2.075c0.037,0.084,0.223,0.54,0.223,1.201c0.001,0.047-0.001,0.107-0.005,0.169   C200.724,56.035,200.343,56.393,199.888,56.393z M185.946,54.664c-0.134,0-0.27-0.031-0.396-0.098   c-1.01-0.522-1.998-1.035-2.93-1.5c-0.426-0.213-0.599-0.73-0.386-1.156s0.731-0.599,1.155-0.386   c0.939,0.469,1.937,0.983,2.954,1.512c0.422,0.219,0.586,0.739,0.368,1.162C186.558,54.494,186.257,54.664,185.946,54.664z    M180.009,51.764c-0.109,0-0.221-0.021-0.328-0.066c-0.726-0.298-1.304-0.491-1.723-0.573c-0.106,0.197-0.286,0.351-0.515,0.415   c-0.449,0.123-0.912-0.109-1.049-0.557c-0.048-0.153-0.071-0.304-0.071-0.445c0-0.586,0.409-1.176,1.323-1.176   c0.163,0,0.341,0.018,0.545,0.054c0.553,0.097,1.255,0.323,2.146,0.69c0.44,0.181,0.649,0.686,0.469,1.124   C180.669,51.562,180.347,51.764,180.009,51.764z"/>
	<path d="M196.893,50.61c-0.294,0-0.58-0.15-0.741-0.422l-0.732-1.235c-0.243-0.409-0.107-0.938,0.302-1.181   c0.408-0.242,0.938-0.108,1.18,0.302l0.733,1.236c0.243,0.409,0.108,0.938-0.301,1.181C197.194,50.572,197.043,50.61,196.893,50.61   z"/>
	<path d="M188.162,47.648c-0.41,0-0.773-0.293-0.848-0.71c-0.084-0.468,0.228-0.917,0.696-1l2.827-0.506   c0.473-0.084,0.918,0.228,1.001,0.696c0.083,0.469-0.228,0.917-0.696,1l-2.828,0.507C188.264,47.644,188.212,47.648,188.162,47.648   z M194.948,46.434c-0.409,0-0.772-0.293-0.848-0.71c-0.083-0.468,0.229-0.917,0.697-1l2.827-0.506c0.47-0.084,0.916,0.227,1,0.696   c0.085,0.469-0.228,0.917-0.696,1l-2.827,0.507C195.05,46.429,194.999,46.434,194.948,46.434z"/>
	<path d="M194.079,51.124c-0.401,0-0.761-0.28-0.844-0.688l-0.42-2.055c-0.096-0.466,0.205-0.921,0.672-1.017   c0.466-0.094,0.921,0.206,1.017,0.672l0.42,2.055c0.096,0.466-0.204,0.921-0.671,1.017   C194.194,51.119,194.136,51.124,194.079,51.124z M192.853,45.13c-0.4,0-0.761-0.281-0.844-0.689l-0.576-2.815   c-0.096-0.466,0.205-0.921,0.672-1.017c0.463-0.094,0.921,0.205,1.017,0.672l0.577,2.814c0.096,0.466-0.205,0.922-0.672,1.017   C192.968,45.125,192.91,45.13,192.853,45.13z"/>
	<ellipse cx="166.614" cy="53.624" rx="2.289" ry="1.428"/>
	<ellipse cx="211.021" cy="53.027" rx="2.125" ry="1.92"/>
	<path d="M361.816,61.847l-0.867-1.658L353,61.051V19.938l-1.121,0.151c-0.261,0.035-0.879,0.068-0.879,0.099v-5.469   c0-0.998-0.676-2.3-3.541-3.458c-4.641-1.876-10.298,0.043-12.507,2.251c-1.033,1.035-0.952,1.934-0.952,2.822V47.38l-7.912-26.574   l-1.201,0.979c-0.01,0.007-0.193,0.146-0.514,0.354l-1.263-5.809L323.084,16h-0.003c-0.206-1-1.151-1.8-4.12-2.288   c-4.647-0.766-11.308,3.009-12.081,6.739c-0.117,0.567-0.203,1.407,0.161,2.188c0.108,0.363,8.013,26.916,12.434,42.002   l-17.29,1.862l0.863,1.354c0.006,0.01,0.121,0.196,0.285,0.539l-5.285,0.546c-0.152-0.021-0.313-0.024-0.479-0.011   c-0.986,0.08-2.177,0.881-3.043,3.761c-1.355,4.51,1.401,11.586,5.001,12.834c0.324,0.111,0.718,0.2,1.156,0.2   c0.29,0,0.606,0.019,0.927-0.078c0.549-0.062,54.939-6.184,57.521-6.422l0.259-0.024l0.214-0.146   C367.059,73.953,362.043,62.39,361.816,61.847z M351,22.191v39.074l-12.501,1.346L336,54.15V19.54   C340,22.762,348,22.445,351,22.191z M349,20.314c-2,0.073-5-0.014-7-0.483v-2.086c0,0.089,0.8,0.154,1.276,0.192   c2.043,0.16,3.724-0.096,5.724-0.802V20.314z M342.217,15.774c0.177-0.078,0.401-0.149,0.653-0.184l-0.006,0.308   C342.588,15.862,342.376,15.817,342.217,15.774z M335.886,15.134c1.56-1.93,6.761-3.632,10.748-2.019   c1.943,0.785,2.236,1.441,2.214,1.538c-0.101,0.424-1.535,1.228-3.985,1.324l0.042-2.146l-0.807-0.173   c-1.41-0.301-3.046,0.2-3.812,1.125c-0.301,0.364-0.436,0.215-0.415,1.215H340v3.32c-2-0.583-3.387-1.465-4.275-2.779   C335.6,16.358,335.244,15.928,335.886,15.134z M322.521,23.095c-1.576,0.668-3.916,1.293-6.904,1.112l-0.61-2.71   c0.382,0.005,0.804-0.023,1.277-0.092c2.032-0.291,4.077-1.014,5.398-2.035L322.521,23.095z M314.911,19.497   c0.155-0.116,0.359-0.234,0.598-0.324l0.062,0.303C315.293,19.501,315.076,19.503,314.911,19.497z M309.102,22.087   c-0.232-0.321-0.351-0.685-0.263-1.107c0.507-2.446,6.071-5.661,9.798-5.049c2.068,0.34,2.499,0.916,2.498,1.015   c-0.005,0.437-1.228,1.536-3.597,2.168l-0.431-2.102l-0.825,0.008c-1.438,0.015-2.934,0.833-3.477,1.904   c-0.214,0.421-0.255,0.854-0.146,1.247c0.006,0.021,0.006,0.044,0.013,0.066l0.007,0.029l0.16,0.71l0.671,2.982   c-0.424-0.076-0.855-0.164-1.301-0.275C310.999,23.38,309.671,22.874,309.102,22.087z M313.773,25.014l-0.023,0.005l-0.002-0.009   C313.757,25.012,313.765,25.013,313.773,25.014z M309.809,24.988c0.541,0.235,1.175,0.449,1.915,0.635   c6.529,1.64,11.134-0.281,13.2-1.484l8.951,30.301l2,6.771l0.479,1.618l-14.868,1.6C317.92,52.257,312.019,32.414,309.809,24.988z    M300,70.692l3.938-0.347c1,1.649,1.032,4.05,0.468,6.986L305,77.297v0.004l-0.541,0.031l-3.043,0.271   c0.055-0.377,0.095-0.816,0.089-1.295c-0.025-2.012-0.505-4.155-1.505-5.614C300,70.693,300,70.693,300,70.692z M303.298,80.644   c-0.457,1.16-1.131,2.412-1.983,2.875c-0.349,0.189-0.725,0.26-1.133,0.118c-2.36-0.817-4.831-6.742-3.74-10.367   c0.607-2.021,1.287-2.354,1.327-2.346c0.433,0.061,1.365,1.416,1.687,3.847l-2.142,0.156l-0.098,0.819   c-0.171,1.429,0.448,3.017,1.44,3.693c0.39,0.266,0.812,0.362,1.217,0.305c0.01-0.001,0.02,0,0.028-0.002   c0.024-0.004,0.049-0.001,0.073-0.007l0.721-0.066l3.044-0.28C303.608,79.8,303.466,80.217,303.298,80.644z M299.56,76.768   c-0.011,0.279-0.036,0.493-0.064,0.657c-0.095-0.169-0.186-0.387-0.244-0.634L299.56,76.768z M358.675,77.263   c-4.231,0.434-43.449,4.842-54.486,6.083c0.336-0.537,0.662-1.187,0.971-1.97c2.443-6.205,1.182-10.987,0.258-13.219l54.174-5.812   C360.506,64.911,363.662,73.567,358.675,77.263z"/>
	<path d="M-44.412,59.105c-0.395-0.179-0.478-0.27-0.907-0.317L-58,55.871v-5.547c0-0.943-3.854-3.412-7.876-4.814l4.517-0.914   l0.128-0.177c0.092-0.079,2.195-1.982,2.195-5.404c0-3.559-3.058-5.349-3.366-5.486c-0.252-0.112-0.527-0.155-0.527-0.155   l-25.679,4.956l-0.013,0.003c-2.035,0.074-3.775,1.522-4.541,3.563c-0.488-0.006-0.774-0.021-1.267-0.021   c-19.747,0-35.571,4.095-35.571,9.292v6.452c0,5.196,15.443,9.409,35.191,9.409c10.474,0,19.959-1.185,26.648-3.074l20.134,4.817   c0.354,0.096,0.693,0.162,1.066,0.162c1.918,0,3.716-1.259,4.597-3.208C-41.184,63.117-42.109,60.148-44.412,59.105z    M-63.15,35.571c0.615,0.444,1.932,1.636,1.932,3.427c0,1.936-0.936,3.183-1.332,3.621l-15.564,3.23l-0.062,0.015l-5.688,1.207   c0.254-0.528,0.545-1.172,0.659-1.785c0,0,0.167-0.814,0.147-1.447c-0.029-0.958-0.084-1.036-0.352-1.867s-0.939-1.549-1.591-2.222   L-63.15,35.571z M-91.395,43.642c0.003-0.03,0.007-0.061,0.011-0.09c0.027-0.186,0.063-0.366,0.111-0.54   c0.004-0.018,0.01-0.036,0.016-0.054c0.107-0.372,0.257-0.717,0.445-1.025c0.543-0.886,1.391-1.46,2.346-1.46   c0.036,0,0.072,0.006,0.108,0.007c0.987,0.046,1.854,0.702,2.366,1.679c0.071,0.133,0.132,0.275,0.188,0.419   c0.012,0.031,0.022,0.062,0.033,0.094c0.106,0.292,0.183,0.603,0.227,0.929c0.005,0.039,0.008,0.078,0.014,0.117   c0.018,0.164,0.029,0.331,0.029,0.501c0,0.177-0.015,0.35-0.035,0.521c-0.019,0.158-0.046,0.312-0.079,0.463   c-0.269,1.243-1.027,2.234-2.003,2.603c-0.27,0.103-0.554,0.159-0.849,0.159c-1.426,0-2.618-1.275-2.902-2.969   c-0.042-0.251-0.065-0.51-0.065-0.776C-91.434,44.022-91.418,43.831-91.395,43.642z M-93.521,57.655   c-17.619,0-31.901-2.839-31.901-6.339s14.275-6.338,31.887-6.34c0.142,1.268,0.672,2.856,1.645,3.594   c-0.26-0.008-0.812-0.219-1.08-0.219c-3.846,0-6.973,0.648-7.141,1.648h0.11v1.001c0,0.911,3.048,1.647,7,1.647s7-0.736,7-1.647   v-0.677v-0.383l0.103-0.039l13.958-2.99c5.738,1.146,9.481,2.691,9.481,4.438C-62.458,54.85-75.902,57.655-93.521,57.655z    M-50.725,61.946c-0.463,1.023-0.602,2.129-0.439,3.176l-12.201-2.911l-3.17-0.756c-0.246-0.509-0.557-1.429-0.15-2.326   c0.477-1.054,1.246-1.57,1.656-1.782l6.096,1.367l8.961,2.008C-50.266,61.09-50.521,61.499-50.725,61.946z M-44.955,64.558   c-0.473,1.043-1.529,1.699-2.363,1.489l0.002-0.006l-0.127-0.031c-0.025-0.009-0.055-0.011-0.08-0.021   c-0.516-0.234-0.725-0.743-0.805-1.025c-0.16-0.567-0.094-1.241,0.182-1.85c0.41-0.903,1.309-1.541,1.98-1.539   c0.494,0.001,0.688,0.198,0.688,0.198C-44.773,62.191-44.43,63.396-44.955,64.558z"/>
</g>
</svg>