<svg xmlns="http://www.w3.org/2000/svg" xmlns:xlink="http://www.w3.org/1999/xlink" version="1.1" id="Your_Icon" x="0px" y="0px" width="100px" height="100px" viewBox="0 0 100 100" style="enable-background:new 0 0 100 100;" xml:space="preserve">
<path d="M50.001-0.001C22.387-0.001,0,22.384,0,50.001c0,24.623,17.814,45.038,41.248,49.185l-9.732-72.244  c-0.208-1.577,0.889-3.009,2.465-3.224c1.562-0.215,3.001,0.893,3.214,2.453l9.931,73.679c0.957,0.059,1.904,0.151,2.876,0.151  c27.613,0,49.999-22.391,49.999-50C100,22.384,77.614-0.001,50.001-0.001z M45.124,60.294L41,29.695  c13.238,0.109,26.269,7.493,39.797-2.436c-3.317,10.905-5.358,13.061-9.157,20.437c5.605,6.073,8.15,7.63,13.284,10.161  C71.4,67.793,58.358,60.405,45.124,60.294z"/>
</svg>