<?xml version="1.0" encoding="utf-8"?>
<!-- Generator: Adobe Illustrator 17.1.0, SVG Export Plug-In . SVG Version: 6.00 Build 0)  -->
<!DOCTYPE svg PUBLIC "-//W3C//DTD SVG 1.1//EN" "http://www.w3.org/Graphics/SVG/1.1/DTD/svg11.dtd">
<svg version="1.1" id="Layer_1" xmlns="http://www.w3.org/2000/svg" xmlns:xlink="http://www.w3.org/1999/xlink" x="0px" y="0px"
	 viewBox="0 0 100 100" enable-background="new 0 0 100 100" xml:space="preserve">
<path d="M50,5C25.2,5,5,25.2,5,50c0,24.8,20.2,45,45,45c24.8,0,45-20.2,45-45C95,25.2,74.8,5,50,5z M34.7,13.5
	c-2.1,2.6-3.9,5.7-5.4,9.3c-1.9-0.7-3.8-1.4-5.7-2.2C26.9,17.6,30.6,15.2,34.7,13.5z M19.6,24.7c2.5,1.2,5.1,2.3,7.8,3.2
	c-1.8,5.7-2.9,12.3-3.2,19.3H10.6C11.1,38.7,14.5,30.9,19.6,24.7z M10.6,52.7h13.7c0.2,7,1.3,13.6,3.2,19.3c-2.7,0.9-5.3,2-7.8,3.2
	C14.5,69.1,11.1,61.3,10.6,52.7z M23.6,79.4c1.9-0.8,3.8-1.6,5.7-2.2c1.5,3.5,3.3,6.7,5.4,9.3C30.6,84.8,26.9,82.4,23.6,79.4z
	 M47.3,89.2c-5-1.4-9.4-6.4-12.6-13.6c4.1-1,8.4-1.6,12.6-1.8V89.2z M47.3,68.3c-4.9,0.2-9.8,0.9-14.6,2.1c-1.7-5.3-2.7-11.3-3-17.7
	h17.5V68.3z M47.3,47.3H29.7c0.2-6.4,1.3-12.5,3-17.7c4.7,1.2,9.6,1.9,14.6,2.1V47.3z M47.3,26.2c-4.3-0.2-8.5-0.8-12.6-1.8
	c3.2-7.2,7.6-12.2,12.6-13.6V26.2z M89.4,47.3H75.7c-0.2-7-1.3-13.6-3.2-19.3c2.7-0.9,5.3-2,7.8-3.2C85.5,30.9,88.9,38.7,89.4,47.3z
	 M76.4,20.6c-1.9,0.8-3.8,1.6-5.7,2.2c-1.5-3.5-3.3-6.7-5.4-9.3C69.4,15.2,73.1,17.6,76.4,20.6z M52.7,10.8c5,1.4,9.4,6.4,12.6,13.6
	c-4.1,1-8.4,1.6-12.6,1.8V10.8z M52.7,31.7c4.9-0.2,9.8-0.9,14.6-2.1c1.7,5.3,2.7,11.3,3,17.7H52.7V31.7z M52.7,52.7h17.5
	c-0.2,6.4-1.3,12.5-3,17.7c-4.7-1.2-9.6-1.9-14.6-2.1V52.7z M52.7,89.2V73.8c4.3,0.2,8.5,0.8,12.6,1.8
	C62.2,82.8,57.7,87.8,52.7,89.2z M65.3,86.5c2.1-2.6,3.9-5.7,5.4-9.3c1.9,0.7,3.8,1.4,5.7,2.2C73.1,82.4,69.4,84.8,65.3,86.5z
	 M80.4,75.3c-2.5-1.2-5.1-2.3-7.8-3.2c1.8-5.7,2.9-12.3,3.2-19.3h13.7C88.9,61.3,85.5,69.1,80.4,75.3z"/>
</svg>
