<?xml version="1.0" encoding="utf-8"?>
<!-- Generator: Adobe Illustrator 17.1.0, SVG Export Plug-In . SVG Version: 6.00 Build 0)  -->
<!DOCTYPE svg PUBLIC "-//W3C//DTD SVG 1.1//EN" "http://www.w3.org/Graphics/SVG/1.1/DTD/svg11.dtd">
<svg version="1.1" id="Layer_1" xmlns="http://www.w3.org/2000/svg" xmlns:xlink="http://www.w3.org/1999/xlink" x="0px" y="0px"
	 viewBox="0 -11.8 100 100" enable-background="new 0 -11.8 100 100" xml:space="preserve">
<circle cx="15.6" cy="13.6" r="10.6"/>
<path d="M31.5,13.6c0,8.8-7.1,15.9-15.9,15.9H7.6c-1.3,0-2.7,0-2.6,2.6c0,0.7,0,3.3,0,5.3c0,2.6,2.1,2.6,2.6,2.6H95V29.5
	c0-5.3,0-15.9-26.5-15.9C68.5,13.6,31.5,13.6,31.5,13.6z"/>
<path d="M10.3,45.4C7.6,45.4,5,48,5,50.6C5,55.9,5,62,5,66.5c0,2.6,2.6,5.3,5.3,5.3s5.3-2.6,5.3-5.3V55.9h68.8v10.6
	c0,2.6,2.6,5.3,5.3,5.3c2.6,0,5.3-2.6,5.3-5.3V50.6c0-2.6-2.6-5.3-5.3-5.3L10.3,45.4L10.3,45.4z"/>
</svg>
