<?xml version="1.0" encoding="utf-8"?>
<!-- Generator: Adobe Illustrator 17.1.0, SVG Export Plug-In . SVG Version: 6.00 Build 0)  -->
<!DOCTYPE svg PUBLIC "-//W3C//DTD SVG 1.1//EN" "http://www.w3.org/Graphics/SVG/1.1/DTD/svg11.dtd">
<svg version="1.1" id="Layer_1" xmlns="http://www.w3.org/2000/svg" xmlns:xlink="http://www.w3.org/1999/xlink" x="0px" y="0px"
	 viewBox="0 0 100 100" enable-background="new 0 0 100 100" xml:space="preserve">
<g id="XMLID_29_">
	<g>
		<g id="XMLID_68_">
			<g>
				<path d="M83.8,64.9v-4.2h-2.9v4.2H83.8z M83.8,69.7v-4.2h-2.9v4.2C80.8,69.7,83.8,69.7,83.8,69.7z M84.6,69.7h2.9v-4.2h-2.9
					V69.7z M87.5,64.9v-4.2h-2.9v4.2H87.5z M93.3,77H75.1V56.7v-0.8v-3.7l8.7-7.6l4.4,3.8h0.3v-3.8h3.7l0,7.1l8,6.8L96.3,59v18
					C96.3,77,93.3,77,93.3,77z"/>
				<path d="M49.4,55.4v-7.5h-5.3v7.5C44.1,55.4,49.4,55.4,49.4,55.4z M49.4,64v-7.5h-5.3V64H49.4z M50.9,56.5V64h5.3v-7.5H50.9z
					 M56.2,55.4v-7.5h-5.3v7.5C50.9,55.4,56.2,55.4,56.2,55.4z M78.7,43.7l-6.8,0.9V77h-5.3H33.8h-5.3V43.7h-7.7l28.6-25.1l8,6.9
					v-6.9h7.2v13L78.7,43.7z"/>
				<path d="M15.5,65v-4.2h-2.9V65C12.6,65,15.5,65,15.5,65z M15.5,69.7v-4.2h-2.9v4.2C12.6,69.7,15.5,69.7,15.5,69.7z M19.3,69.7
					v-4.2h-2.9v4.2C16.4,69.7,19.3,69.7,19.3,69.7z M19.3,65v-4.2h-2.9V65C16.4,65,19.3,65,19.3,65z M25.1,56.7V77H6.8h-3V59
					l-3.8-0.5l8-6.8l0-7.1h3.7v3.8h0.3l4.4-3.8l8.7,7.6v3.7C25.1,55.9,25.1,56.7,25.1,56.7z"/>
			</g>
		</g>
	</g>
</g>
</svg>
