<?xml version="1.0" encoding="utf-8"?>
<!-- Generator: Adobe Illustrator 17.1.0, SVG Export Plug-In . SVG Version: 6.00 Build 0)  -->
<!DOCTYPE svg PUBLIC "-//W3C//DTD SVG 1.1//EN" "http://www.w3.org/Graphics/SVG/1.1/DTD/svg11.dtd">
<svg version="1.1" id="Layer_1" xmlns="http://www.w3.org/2000/svg" xmlns:xlink="http://www.w3.org/1999/xlink" x="0px" y="0px"
	 viewBox="0 0 100 100" enable-background="new 0 0 100 100" xml:space="preserve">
<path d="M86.4,13.2c-5.2-2.6-8.1-6.9-9.1-8.7V3.8h-6.6v51.6c-2.7-1.2-6-1.7-9.5-1.2c-7.9,1.1-13.7,7-12.8,13.1
	c0.9,6.1,8,10.1,15.9,9c7.5-1.1,13-6.3,12.9-12.1h0V17.6c1.3,0.9,5.3,0.9,9.5,5.1c5.1,5.1,3.3,14.6,3.3,14.6
	C98.3,31.1,95.7,17.8,86.4,13.2z"/>
<path d="M55,79.6H40.4V58.7l26.4-32.6H6l26.9,32.5v21H18.6c-5,0-5,7.4,0,7.4H55C59.9,87,59.9,79.6,55,79.6z M36.5,44.4
	c0-2.6,2.1-4.7,4.7-4.7c2.6,0,4.7,2.1,4.7,4.7c0,2.6-2.1,4.7-4.7,4.7C38.6,49.1,36.5,47,36.5,44.4z"/>
<path d="M41.3,44.4"/>
</svg>
