<svg xmlns="http://www.w3.org/2000/svg" xmlns:xlink="http://www.w3.org/1999/xlink" version="1.1" id="Your_Icon" x="0px" y="0px" width="100px" height="100px" viewBox="0 0 100 100" enable-background="new 0 0 100 100" xml:space="preserve">
<path fill="#000000" d="M94.947,79.482c-0.071,0-0.142,0.006-0.212,0.012c-0.027-0.002-0.05-0.008-0.076-0.008H78.354l-0.288-9.894  l12.921,0.023c2.344,0.018,3.089-0.305,3.13-1.85c0.025-0.975-1.216-2.284-1.216-2.284s-4.473-5.363-7.64-8.603h2.79  c2.345,0.018,3.089-0.308,3.129-1.851c0.025-0.973-1.214-2.285-1.214-2.285s-4.132-3.796-7.265-6.968l0.089-0.409l2.668,0.026  c2.346,0.019,3.089-0.306,3.13-1.85c0.028-0.974-1.216-2.286-1.216-2.286s-7.525-7.542-9.961-10.5  c-0.365-0.444-0.716-0.775-1.044-1.023v-0.022c0,0-0.593-0.647-1.567-0.606c-0.976-0.041-1.565,0.606-1.565,0.606v0.022  c-0.331,0.248-0.679,0.579-1.043,1.023c-2.438,2.958-9.964,10.5-9.964,10.5s-1.868,1.312-1.842,2.286  c0.041,1.543,1.411,1.869,3.754,1.85l2.67-0.026l0.089,0.409c-3.131,3.171-7.262,6.968-7.262,6.968s-1.244,1.312-1.217,2.285  c0.041,1.543,0.786,1.868,3.131,1.851h2.787c-0.974,0.998-2.072,2.078-3.126,3.094c0.877,0.817,1.422,1.32,1.441,1.338l0.063,0.057  l0.06,0.064c5.185,5.186,1.662,8.172,1.662,8.172l7.098-0.012l-0.289,9.894H37.468l-0.415-9.954l20.312,0.034  c3.638,0.029,4.792-0.475,4.855-2.87c0.04-1.511-1.886-3.545-1.886-3.545s-6.94-6.38-11.853-11.405h4.328  c3.639,0.029,4.791-0.475,4.856-2.868c0.038-1.513-1.887-3.547-1.887-3.547s-6.41-5.89-11.267-10.81l0.137-0.637l4.139,0.042  c3.64,0.029,4.793-0.475,4.858-2.87c0.038-1.511-1.888-3.546-1.888-3.546S40.081,16.153,36.301,11.563  c-0.565-0.687-1.108-1.202-1.62-1.585V9.943c0,0-0.919-1.005-2.431-0.94c-1.512-0.065-2.43,0.94-2.43,0.94v0.035  c-0.512,0.384-1.054,0.898-1.62,1.585c-3.78,4.59-15.457,15.948-15.457,15.948s-1.926,2.035-1.887,3.546  c0.063,2.395,1.219,2.898,4.856,2.87l4.14-0.042l0.138,0.637c-4.86,4.92-11.27,10.81-11.27,10.81s-1.926,2.034-1.886,3.547  c0.063,2.394,1.218,2.897,4.857,2.868h4.326C11.108,56.771,4.166,63.151,4.166,63.151s-1.924,2.034-1.885,3.545  c0.062,2.396,1.217,2.899,4.856,2.87l20.222-0.034l-0.415,9.954H5.507c-0.025,0-0.049,0.006-0.075,0.008  c-0.071-0.006-0.141-0.012-0.212-0.012c-2.08,0-3.766,1.687-3.766,3.767c0,2.079,1.687,3.765,3.766,3.765  c0.113,0,0.223-0.007,0.333-0.018h89.062c0.108,0.011,0.22,0.018,0.332,0.018c2.079,0,3.766-1.686,3.766-3.765  C98.713,81.169,97.026,79.482,94.947,79.482z"/>
</svg>