<svg xmlns="http://www.w3.org/2000/svg" xmlns:xlink="http://www.w3.org/1999/xlink" version="1.1" id="Layer_1" x="0px" y="0px" width="100px" height="100px" viewBox="0 0 100 100" enable-background="new 0 0 100 100" xml:space="preserve">
<path d="M94.05,51.572L53.179,21.701c-1.806-1.8-4.998-1.8-6.805,0L6.192,50.883c-1.879,1.879-2.1,4.471-0.269,6.4  c0.531,0.555,1.218,0.885,1.958,1.047c1.08,0.311,2.246,0.191,3.253-0.354c0.083-0.035,0.156-0.084,0.237-0.125  c0.033-0.023,0.068-0.037,0.102-0.057c0.48-0.252,1.107-0.557,1.494-0.945L18,53.432v30.125C18,85.066,19.063,87,20.575,87h58.83  C80.917,87,83,85.066,83,83.561V53.432l4.489,3.59c0.094,0.088,0.048,0.158,0.144,0.236l0.364,0.438c1.69,1.691,4.396,1.691,6.087,0  S95.739,53.264,94.05,51.572z M49,54h15.101C66.115,54,68,54.729,68,56.743V64H49V54z M37.703,49.552  c2.374,0,4.388,2.014,4.388,4.389c0,2.445-2.014,4.387-4.388,4.387s-4.388-1.941-4.388-4.387  C33.315,51.565,35.329,49.552,37.703,49.552z M35.329,60H43v-4.837c0-1.152,0.922-2.016,2-2.016c1.152,0,2,0.863,2,2.016v5.609  C47,62.067,45.759,64,44.536,64h-9.207c-1.15,0-2.014-0.885-2.014-2.035C33.315,60.885,34.179,60,35.329,60z M74,79h-4v-7H32v7h-4  V50.984c0-1.295,0.706-2.445,2-2.445s2,1.15,2,2.445V66h38v-9.045c0-1.295,0.741-2.375,1.964-2.375c1.295,0,2.036,1.08,2.036,2.375  V79z"/>
</svg>