<svg xmlns="http://www.w3.org/2000/svg" xmlns:xlink="http://www.w3.org/1999/xlink" version="1.1" id="Layer_1" x="0px" y="0px" width="100px" height="100px" viewBox="0 0 100 100" enable-background="new 0 0 100 100" xml:space="preserve">
<path d="M81.132,25.724c-0.688-0.831-1.434-1.634-2.207-2.407c-4.214-4.214-8.915-7.281-14.103-9.172  c3.411,4.844,6.048,10.003,7.911,15.478C75.628,28.562,78.438,27.243,81.132,25.724z"/>
<path d="M34.438,31.142c4.729,1.318,9.717,2.035,14.934,2.149V11.879c-1.462,0.058-2.895,0.201-4.328,0.402  C40.258,18.042,36.703,24.348,34.438,31.142z"/>
<path d="M31.372,49.113h18V37.018c-5.59-0.144-10.921-0.917-15.994-2.294C32.146,39.282,31.486,44.097,31.372,49.113z"/>
<path d="M39.34,13.57c-5.847,1.835-11.121,5.074-15.765,9.746c-0.803,0.773-1.52,1.576-2.236,2.407c3.067,1.72,6.22,3.152,9.545,4.3  C32.834,24.176,35.643,18.701,39.34,13.57z"/>
<path d="M58.917,12.539c-1.863-0.345-3.812-0.574-5.818-0.66v21.412c5.646-0.144,11.007-0.974,16.108-2.494  C66.942,24.233,63.532,18.156,58.917,12.539z"/>
<path d="M70.297,34.38c-5.446,1.605-11.15,2.494-17.198,2.638v12.096h19.29C72.274,43.954,71.559,39.053,70.297,34.38z"/>
<path d="M72.389,52.84h-19.29v14.045c5.848,0.144,11.408,0.975,16.682,2.522C71.386,64.161,72.246,58.658,72.389,52.84z"/>
<path d="M33.865,69.063c4.931-1.318,10.119-2.064,15.507-2.179V52.84h-18C31.516,58.544,32.346,63.933,33.865,69.063z"/>
<path d="M42.55,86.433c0.774,1.09,1.635,2.18,2.522,3.24c1.405,0.201,2.838,0.344,4.3,0.4V70.611  c-4.986,0.144-9.745,0.803-14.303,1.978C36.903,77.462,39.368,82.077,42.55,86.433z"/>
<path d="M22.486,77.548c0.343,0.373,0.716,0.745,1.089,1.118c4.672,4.672,9.918,7.911,15.793,9.717  c-3.353-4.614-5.962-9.545-7.882-14.733C28.391,74.682,25.381,75.972,22.486,77.548z"/>
<path d="M53.099,70.611v19.462c2.007-0.086,3.927-0.286,5.79-0.63c0.831-1.003,1.604-2.007,2.351-3.011  c3.066-4.242,5.532-8.742,7.338-13.528C63.676,71.528,58.517,70.755,53.099,70.611z"/>
<path d="M64.822,87.81c5.188-1.893,9.86-4.93,14.073-9.144c0.029,0,0.029,0,0.029,0c0.344-0.373,0.717-0.745,1.061-1.118  c-2.522-1.376-5.16-2.522-7.854-3.497C70.297,78.896,67.889,83.481,64.822,87.81z"/>
<path d="M27.646,52.84H12.167c0.314,8.227,2.952,15.479,7.883,21.813c3.267-1.835,6.679-3.354,10.262-4.529  C28.677,64.649,27.789,58.916,27.646,52.84z"/>
<path d="M73.822,33.205c1.405,5.045,2.149,10.348,2.293,15.908h14.218c-0.315-7.624-2.608-14.446-6.879-20.437  C80.357,30.454,77.147,31.973,73.822,33.205z"/>
<path d="M73.335,70.524c3.153,1.119,6.191,2.494,9.115,4.129c4.93-6.335,7.539-13.587,7.883-21.813H76.115  C75.972,59.06,75.026,64.937,73.335,70.524z"/>
<path d="M29.795,33.606c-3.726-1.289-7.338-2.924-10.777-4.93c-4.271,5.99-6.564,12.812-6.851,20.437h15.479  C27.76,43.696,28.477,38.536,29.795,33.606z"/>
</svg>