<?xml version="1.0" encoding="utf-8"?>
<!-- Generator: Adobe Illustrator 17.1.0, SVG Export Plug-In . SVG Version: 6.00 Build 0)  -->
<!DOCTYPE svg PUBLIC "-//W3C//DTD SVG 1.1//EN" "http://www.w3.org/Graphics/SVG/1.1/DTD/svg11.dtd">
<svg version="1.1" id="Layer_1" xmlns="http://www.w3.org/2000/svg" xmlns:xlink="http://www.w3.org/1999/xlink" x="0px" y="0px"
	 viewBox="0 0 100 100" enable-background="new 0 0 100 100" xml:space="preserve">
<g id="Your_Icon">
	<g>
		<path d="M25.3,10c-1.4,0-2.2,1-2.2,2.4v20.1h-1.8V12.4c0-1.4-0.9-2.4-2.2-2.4c-1.4,0-2.2,1-2.2,2.4v20.1H16V12.4
			c0-1.4-0.9-2.4-2.2-2.4c-1.4,0-2.2,1-2.2,2.4v20.1H9.9V12.4C9.9,11,8.9,10,7.7,10S5,11,5,12.4V33c0,0.2-0.1,0.6,0,0.8
			c0.5,4.7,3.6,8.5,7.2,10.3v40.6c0,2.4,1.6,4.4,4.1,4.4c2.4,0,4.1-2,4.1-4.4V44.1c3.6-1.8,6.7-5.1,7.2-9.8c0.1-0.2,0-1.2,0-1.4
			V12.4C27.5,11,26.7,10,25.3,10z"/>
		<path d="M90.6,10c-2.4,0-6.4,2.9-6.4,12.7V51l1.8,0.7v32.9c0,2.4,2.1,4.4,4.5,4.4c2.4,0,4.5-2,4.5-4.4V55V44.2V14.4
			C95,12,93,10,90.6,10z"/>
		<g>
			<path d="M53,29.6c-15.7,0-28.3,12.7-28.3,28.3S37.3,86.3,53,86.3s28.3-12.7,28.3-28.3S68.6,29.6,53,29.6z M53,81.2
				c-12.9,0-23.3-10.5-23.3-23.3S40.1,34.6,53,34.6S76.3,45,76.3,57.9S65.8,81.2,53,81.2z"/>
			<path d="M53,38.2c-10.9,0-19.7,8.8-19.7,19.7S42.1,77.6,53,77.6s19.7-8.8,19.7-19.7S63.7,38.2,53,38.2z"/>
		</g>
	</g>
</g>
</svg>
