<?xml version="1.0" encoding="utf-8"?>
<!-- Generator: Adobe Illustrator 17.1.0, SVG Export Plug-In . SVG Version: 6.00 Build 0)  -->
<!DOCTYPE svg PUBLIC "-//W3C//DTD SVG 1.1//EN" "http://www.w3.org/Graphics/SVG/1.1/DTD/svg11.dtd">
<svg version="1.1" id="Layer_1" xmlns="http://www.w3.org/2000/svg" xmlns:xlink="http://www.w3.org/1999/xlink" x="0px" y="0px"
	 viewBox="-18.8 -13.5 100 100" enable-background="new -18.8 -13.5 100 100" xml:space="preserve">
<g>
	<g>
		<path d="M70.7,74.1L70.5,74L70.7,74.1l-6.5-58.9H59c0-0.2,0-0.5,0-0.7C59,1.2,48.4-9.5,35.2-9.5C22.5-9.5,12.1,0.5,11.4,13
			c-0.3,0.7-0.5,1.4-0.8,2.1H7.1l-8.6,8.6l-6.4,54.6L62,82.6l0-0.4L70.7,74.1z M18.1,15.2c2.2-4.7,7-7.9,12.5-7.9s10.3,3.2,12.5,7.9
			H18.1z M52.5,15.2h-1.8c-2.6-8.6-10.5-14.9-20-14.9c-2.5,0-4.9,0.5-7.1,1.2C26.7-1.3,30.7-3,35.2-3c9.6,0,17.4,7.8,17.4,17.4
			C52.5,14.7,52.5,14.9,52.5,15.2z M58.9,21.8L64.2,70l-7.1,5.7L58.9,21.8z"/>
	</g>
</g>
</svg>
