<svg xmlns="http://www.w3.org/2000/svg" xmlns:xlink="http://www.w3.org/1999/xlink" version="1.1" id="Capa_3" x="0px" y="0px" width="100px" height="100px" viewBox="0 0 100 100" enable-background="new 0 0 100 100" xml:space="preserve">
<g>
	<path d="M76.012,89.344l22.903-4.502l-7.779-31.188l-4.837,0.949l-0.167-0.838c-0.393-1.951-1.857-3.463-3.67-4.037l-3.187-14.436   c-0.244-0.875-0.796-1.632-1.542-2.14L62.152,22.572c-0.031-0.021-0.059-0.041-0.09-0.061l-0.357-0.242l-0.019,0.029   c-1.134-0.689-2.445-1.121-3.859-1.144c-3.11-0.106-5.678,1.618-6.961,4.132l-9.059,12.627l-16.142,4.83l0.28,1.117   c-1.867,0.373-3.35,1.664-3.964,3.454l-6.464-4.453L1.085,62.259l11.49,7.917l1.903-23.114l7.481,0.343   c-0.145,0.443-0.321,0.879-0.343,1.368L21.584,49.5l-5.171-0.237l-2.789,33.917l23.319,1.066l0.308-34.032l-4.968-0.226   l0.032-0.726c0.027-0.506-0.113-0.972-0.222-1.444l12.978-2.771c0.881-0.224,1.654-0.753,2.183-1.492l1.854-2.579   c0.041,3.451,0.339,6.383,0.339,6.383C36.559,69.347,39.371,85.8,39.371,85.8s1.089-0.85,3.888-1.352l0.465,15.418L49.464,100   l1.252-15.767c1.306,0.106,2.735,0.273,4.326,0.538c1.858,0.312,3.671,0.459,5.411,0.497l7.064,13.803l5.614-2.559l-4.746-11.852   c1.749-0.287,3.372-0.62,4.674-0.975l-4.791-27.749l1.654-0.332c-2.197-4.878-4.602-7.671-4.602-7.671   c0.298-1.659,0.181-4.92-0.081-8.357l0.09-5.515l6.907,4.688l4.524,12.749c-0.1,0.132-0.249,0.211-0.344,0.351   c-0.791,1.191-1.075,2.619-0.791,4.023l0.158,0.8l-5.116,1.006L76.012,89.344z M30.068,49.887L23.794,49.6l0.036-0.728   c0.063-1.512,1.216-2.665,2.658-2.897l0.732,2.884l2.744-0.585c0.068,0.289,0.149,0.576,0.136,0.886L30.068,49.887z M77.797,55.436   c-0.158-0.779,0.009-1.564,0.42-2.24l4.051-1.147c0.836,0.425,1.496,1.185,1.694,2.153l0.163,0.832l-6.161,1.209L77.797,55.436z"/>
	<path d="M55.802,18.892c1.388,0.201,2.734,0.052,3.991-0.337c4.077-0.515,8.868-3.439,7.621-9.96C65.751-0.118,56.796,0,56.796,0   c-4.909,0.222-8.181,2.825-9.148,6.08c-0.312,1.071-0.045,1.971,0.42,2.719C47.494,13.694,50.902,18.18,55.802,18.892z"/>
	<path d="M67.423,16.905c2.834,3.069,6.821,4.118,12.097-0.031c0,0-4.132-0.011-6.618-3.89C70.42,9.106,64.589,13.836,67.423,16.905   z"/>
</g>
</svg>