<svg xmlns="http://www.w3.org/2000/svg" xmlns:xlink="http://www.w3.org/1999/xlink" xml:space="preserve" width="100px" height="100px" version="1.1" style="shape-rendering:geometricPrecision; text-rendering:geometricPrecision; image-rendering:optimizeQuality; fill-rule:evenodd; clip-rule:evenodd" viewBox="0 0 10000000 10000000">
 <defs>
  <style type="text/css">
   
    .fil0 {fill:black}
   
  </style>
 </defs>
 <g id="Layer_x0020_1">
  <metadata id="CorelCorpID_0Corel-Layer"/>
  <path class="fil0" d="M6114240 8708170l0 453260c0,186210 152380,338570 338590,338570l203190 0c186310,0 338600,-152360 338600,-338570l0 -453260 -880380 0z"/>
  <path class="fil0" d="M5115240 8708170l0 453190c0,186280 152300,338640 338610,338640l203210 0c186220,0 338610,-152360 338610,-338640l0 -453190 -880430 0z"/>
  <path class="fil0" d="M7904930 4489560l933880 -933880c128360,-128360 128360,-338460 0,-466890l0 0c-128500,-128440 -338550,-128380 -466990,0l-754620 754620 -877330 -506480c-109420,-63180 -226790,-104290 -354780,-104290l-660320 0c-65260,0 -117720,8410 -180320,25180l-956800 256380 -256350 -956770c-22480,-83830 -75830,-151590 -144540,-194370l309890 -1156510 478040 128100c47150,-176030 -57300,-356920 -233290,-404080 -176020,-47160 -356910,57280 -404090,233290l-307990 1149430c-33640,-1810 -68100,1550 -102330,10720l0 0c-175460,47010 -280510,229000 -233490,404370l341790 1275630c24890,88520 80660,159980 160990,204040 76190,40610 160490,49980 243400,29440l675560 -167430 0 414980 590570 0c127270,0 230940,103670 230940,230950 0,116080 -86230,212530 -197970,228610l0 332270c0,157310 -69550,299020 -179490,395920l1435330 0 0 -1397040 504350 261860 1130 630c126950,76820 295520,60630 404830,-48680z"/>
  <path class="fil0" d="M6054920 1581680c364720,0 660330,332550 660330,742870 0,410290 -295610,742870 -660330,742870 -364660,0 -660300,-332580 -660300,-742870 0,-410320 295640,-742870 660300,-742870z"/>
  <path class="fil0" d="M1485050 5804760l7091130 0 0 2508010 224070 253950c-48850,24640 -94650,57320 -135450,98100 -40770,40790 -73450,86600 -98100,135440l-253940 -224060 -3486450 0c35580,-125860 54660,-258650 54660,-395910 0,-801690 -650010,-1451690 -1451700,-1451690 -801680,0 -1451690,650000 -1451690,1451690 0,137260 19080,270050 54660,395910l-714520 0 0 -2563270 -421770 -243510c-38830,22460 -83910,35340 -132010,35340 -145770,0 -263940,-118170 -263940,-263940 0,-145780 118170,-263950 263940,-263950 145780,0 263950,118170 263950,263950l457160 263940z"/>
  <path class="fil0" d="M3429270 7916350c145770,0 263950,118180 263950,263950 0,145770 -118180,263940 -263950,263940 -145770,0 -263940,-118170 -263940,-263940 0,-145770 118170,-263950 263940,-263950z"/>
  <path class="fil0" d="M2731050 7575390c28860,-33280 60030,-64470 93320,-93320l422980 422990c-37020,24520 -68800,56310 -93320,93310l-422980 -422980z"/>
  <path class="fil0" d="M2507840 8246280c-1540,-21800 -2370,-43800 -2370,-65980 0,-22200 830,-44190 2370,-65990l598120 0c-4350,21330 -6620,43390 -6620,65990 0,22590 2290,44670 6620,65980l-598120 0z"/>
  <path class="fil0" d="M2824370 8878520c-33290,-28860 -64470,-60030 -93320,-93320l422980 -422980c24520,37020 56320,68800 93320,93320l-422980 422980z"/>
  <path class="fil0" d="M3495260 9101730c-21800,1540 -43800,2370 -65990,2370 -22190,0 -44180,-830 -65980,-2370l0 -598120c21320,4350 43390,6620 65980,6620 22600,0 44680,-2290 65990,-6620l0 598120z"/>
  <path class="fil0" d="M4127500 8785200c-28860,33290 -60040,64470 -93320,93320l-422980 -422980c37020,-24520 68790,-56320 93320,-93320l422980 422980z"/>
  <path class="fil0" d="M4350700 8114310c1550,21800 2380,43790 2380,65990 0,22190 -830,44180 -2380,65980l-598110 0c4340,-21320 6610,-43390 6610,-65980 0,-22600 -2280,-44660 -6610,-65990l598110 0z"/>
  <path class="fil0" d="M4034180 7482070c33270,28850 64470,60040 93320,93320l-422980 422980c-24530,-37010 -56290,-68790 -93320,-93310l422980 -422990z"/>
  <path class="fil0" d="M3429270 7256490c22190,0 44190,830 65990,2380l0 598110c-21330,-4340 -43390,-6610 -65990,-6610 -22590,0 -44670,2280 -65980,6610l0 -598110c21800,-1550 43800,-2380 65980,-2380z"/>
  <path class="fil0" d="M3429270 6860580c728860,0 1319730,590860 1319730,1319720 0,728850 -590870,1319720 -1319730,1319720 -728850,0 -1319720,-590870 -1319720,-1319720 0,-728860 590870,-1319720 1319720,-1319720zm0 329930c546650,0 989790,443150 989790,989790 0,546640 -443140,989790 -989790,989790 -546640,0 -989790,-443150 -989790,-989790 0,-546640 443150,-989790 989790,-989790z"/>
  <path class="fil0" d="M3594250 4617010c54440,0 98970,44540 98970,98980l0 0c0,54440 -44530,98980 -98970,98980l-98990 0 0 461900c0,217730 -178190,395920 -395920,395920l-791820 0c-217720,0 -395920,-178160 -395920,-395920l0 -461900 -98980 0c-54440,0 -98980,-44540 -98980,-98980l0 0c0,-54440 44540,-98980 98980,-98980 593870,0 1187760,0 1781630,0z"/>
  <path class="fil0" d="M5705810 4617010c54430,0 98960,44540 98960,98980l0 0c0,54440 -44530,98980 -98960,98980l-99000 0 0 461900c0,217730 -178190,395920 -395910,395920l-791820 0c-217730,0 -395930,-178160 -395930,-395920l0 -461900 -98980 0c-54440,0 -98980,-44540 -98980,-98980l0 0c0,-54440 44540,-98980 98980,-98980 593870,0 1187760,0 1781640,0z"/>
  <path class="fil0" d="M2831740 4388270c376300,12770 663530,80790 663530,162800 -527880,0 -1055770,0 -1583660,0 0,-82010 287240,-150030 663530,-162800 13970,-57850 66310,-101150 128270,-101150l60 0c61960,0 114300,43300 128270,101150z"/>
  <path class="fil0" d="M8711470 8711480c180390,-180380 472840,-180380 653240,0 180380,180400 180380,472850 0,653240 -180400,180380 -472850,180380 -653240,0 -180380,-180390 -180380,-472840 0,-653240zm139980 139990c103090,-103090 270190,-103090 373270,0 103090,103080 103090,270180 0,373270 -103080,103080 -270180,103080 -373270,0 -103080,-103090 -103080,-270190 0,-373270z"/>
  <path class="fil0" d="M8652130 2827300c-366780,85060 -661840,93700 -683060,14480 509900,-136620 1019800,-273250 1529700,-409880 21230,79220 -238620,219260 -598780,328990 1470,59490 -37880,114860 -97730,130900l-50 10c-59850,16040 -121610,-12240 -150080,-64500z"/>
 </g>
</svg>