<?xml version="1.0" encoding="utf-8"?>
<!-- Generator: Adobe Illustrator 15.1.0, SVG Export Plug-In . SVG Version: 6.00 Build 0)  -->
<!DOCTYPE svg PUBLIC "-//W3C//DTD SVG 1.1//EN" "http://www.w3.org/Graphics/SVG/1.1/DTD/svg11.dtd">
<svg version="1.1" id="Layer_1" xmlns="http://www.w3.org/2000/svg" xmlns:xlink="http://www.w3.org/1999/xlink" x="0px" y="0px"
	 width="85.812px" height="100px" viewBox="0 0 85.812 100" enable-background="new 0 0 85.812 100" xml:space="preserve">
<polygon fill="#010101" points="42.955,26.116 42.955,26.116 42.955,26.116 "/>
<path fill="#010101" d="M57.912,82.308c3.934-0.634,7.849-4.734,7.849-9.734V36.021c0-5.161-4.341-9.896-10.239-9.896l-12.567-0.009
	l-12.664,0.009c-5.896,0-10.238,4.736-10.238,9.896v36.552c0,5,3.916,9.101,7.848,9.734L16.106,100h6.804l8.437-12.369h11.55h0.009
	h0.011h11.547L62.902,100h6.806L57.912,82.308z M36.261,29.887c0-0.897,0.78-1.651,1.679-1.651h4.957h0.009h0.011h4.957
	c0.897,0,1.677,0.753,1.677,1.651v2.906c0,0.896-0.737,1.668-1.677,1.668h-4.957h-0.011h-0.009H37.94
	c-0.941,0-1.679-0.772-1.679-1.668V29.887z M30.078,76.977c-2.479,0-4.49-2.011-4.49-4.488c0-2.479,2.011-4.49,4.49-4.49
	c2.479,0,4.488,2.011,4.488,4.49C34.566,74.966,32.557,76.977,30.078,76.977z M42.906,53.229h-0.009H30.632
	c-2.818,0-5.127-1.935-5.101-5.096v-6.58c0-2.735,1.77-5.122,5.101-5.122h12.265h0.021h12.263c3.332,0,5.102,2.387,5.102,5.122v6.58
	c0.025,3.162-2.281,5.096-5.102,5.096H42.917H42.906z M51.143,72.488c0-2.479,2.009-4.49,4.488-4.49s4.488,2.011,4.488,4.49
	s-2.009,4.488-4.488,4.488S51.143,74.966,51.143,72.488z"/>
<circle fill="#010101" cx="39.139" cy="22.222" r="2.836"/>
<circle fill="#010101" cx="46.674" cy="22.222" r="2.836"/>
<path fill="#010101" d="M73.245,12.567C65.143,4.463,54.367,0,42.906,0S20.67,4.463,12.567,12.567C4.462,20.671,0,31.446,0,42.906
	v46.141h8.2V42.906c0-19.137,15.569-34.707,34.707-34.707s34.707,15.57,34.707,34.707v46.141h8.199V42.906
	C85.812,31.445,81.351,20.671,73.245,12.567z"/>
</svg>
