<?xml version="1.0" encoding="utf-8"?>
<!-- Generator: Adobe Illustrator 17.1.0, SVG Export Plug-In . SVG Version: 6.00 Build 0)  -->
<!DOCTYPE svg PUBLIC "-//W3C//DTD SVG 1.1//EN" "http://www.w3.org/Graphics/SVG/1.1/DTD/svg11.dtd">
<svg version="1.1" id="Layer_1" xmlns="http://www.w3.org/2000/svg" xmlns:xlink="http://www.w3.org/1999/xlink" x="0px" y="0px"
	 viewBox="0 0 80 80" enable-background="new 0 0 80 80" xml:space="preserve">
<path d="M58.5,15C58.5,15,58.5,15,58.5,15c0,1.5-2.6,3.8-2.6,3.8l-13.2,6.2l-4.4,27.7l-3.5,1.4L33,33.4l-1.9-3l-15.5,7.3l-3.5,10.8
	L11.4,49l-2-10.3l-1-0.2l-0.3-0.1l0.1-0.3l0.5-1L2,29.2l0.9-0.3L13.4,33l15.5-7.4l-1.1-3.3L12.9,7.8L16.2,6l24.2,14.2l13.2-6.2
	C53.5,13.9,58.5,13,58.5,15z"/>
<path d="M75,57.9V36.6c0-3.8-3.1-6.9-6.9-6.9H54.2c-3.8,0-6.9,3.1-6.9,6.9v21.3c0,3.8,3.1,6.9,6.9,6.9l-5.6,11.1h3.2l1.4-2.8H69
	l1.4,2.8h3.2l-5.6-11.1C71.9,64.8,75,61.7,75,57.9z M69.9,38l-1.4,11.1H53.7L52.3,38H69.9z M53.7,60.2c-1,0-1.9-0.8-1.9-1.9
	s0.8-1.9,1.9-1.9c1,0,1.9,0.8,1.9,1.9S54.7,60.2,53.7,60.2z M54.6,70.4l1.4-2.8h10.2l1.4,2.8H54.6z M68.5,60.2c-1,0-1.9-0.8-1.9-1.9
	s0.8-1.9,1.9-1.9c1,0,1.9,0.8,1.9,1.9S69.5,60.2,68.5,60.2z"/>
</svg>
